<svg xmlns="http://www.w3.org/2000/svg" width="280" height="280" viewBox="0 0 280 280" version="1.1"><path d="M 61.805 78.278 C 49.322 98.229, 38.831 115.277, 38.491 116.162 C 37.917 117.660, 55.585 235.519, 56.640 237.226 C 57.145 238.043, 88.331 238.335, 89.136 237.530 C 89.557 237.110, 89.290 233.169, 87.626 215.211 L 87.136 209.921 95.318 210.211 L 103.500 210.500 104.668 224 C 105.311 231.425, 105.873 237.613, 105.918 237.750 C 105.963 237.887, 121.300 238, 140 238 C 158.700 238, 174.037 237.887, 174.082 237.750 C 174.127 237.613, 174.689 231.425, 175.332 224 L 176.500 210.500 184.682 210.211 L 192.864 209.921 192.374 215.211 C 190.710 233.169, 190.443 237.110, 190.864 237.530 C 191.669 238.335, 222.855 238.043, 223.360 237.226 C 224.415 235.519, 242.083 117.660, 241.509 116.162 C 241.169 115.277, 230.678 98.229, 218.195 78.278 L 195.500 42.004 140 42.004 L 84.500 42.004 61.805 78.278 M 84.229 98.524 L 74.983 117.049 79.491 152.931 C 81.971 172.667, 84 189.306, 84 189.907 C 84 190.685, 100.156 191, 140 191 C 179.844 191, 196 190.685, 196 189.907 C 196 189.306, 198.029 172.667, 200.509 152.931 L 205.017 117.049 195.771 98.524 L 186.525 80 171.647 80 L 156.770 80 157.478 85.750 C 157.868 88.912, 158.258 91.950, 158.344 92.500 C 158.443 93.136, 151.771 93.500, 140 93.500 C 128.229 93.500, 121.557 93.136, 121.656 92.500 C 121.742 91.950, 122.132 88.912, 122.522 85.750 L 123.230 80 108.353 80 L 93.475 80 84.229 98.524 M 167.350 135.705 C 165.439 140.278, 165.153 155.951, 166.885 161.170 C 168.811 166.976, 170.541 167.773, 172.637 163.821 C 173.984 161.282, 174.410 158.029, 174.449 150 C 174.526 134.110, 170.991 126.991, 167.350 135.705 M 109.393 135.522 C 106.684 139.655, 106.597 161.205, 109.273 165.292 C 110.248 166.781, 111.414 168, 111.863 168 C 113.634 168, 115.317 162.103, 115.769 154.309 C 116.353 144.252, 115.462 137.793, 113.088 134.860 L 111.286 132.634 109.393 135.522" stroke="none" fill="#434343" fill-rule="evenodd"/><path d="M 0 140.003 L 0 280.007 140.250 279.753 L 280.500 279.500 280.753 139.750 L 281.007 0 140.503 0 L 0 0 0 140.003 M 0.486 140.500 C 0.486 217.500, 0.605 248.852, 0.750 210.172 C 0.895 171.491, 0.895 108.491, 0.750 70.172 C 0.605 31.852, 0.486 63.500, 0.486 140.500 M 61.805 78.278 C 49.322 98.229, 38.831 115.277, 38.491 116.162 C 37.917 117.660, 55.585 235.519, 56.640 237.226 C 57.145 238.043, 88.331 238.335, 89.136 237.530 C 89.557 237.110, 89.290 233.169, 87.626 215.211 L 87.136 209.921 95.318 210.211 L 103.500 210.500 104.668 224 C 105.311 231.425, 105.873 237.613, 105.918 237.750 C 105.963 237.887, 121.300 238, 140 238 C 158.700 238, 174.037 237.887, 174.082 237.750 C 174.127 237.613, 174.689 231.425, 175.332 224 L 176.500 210.500 184.682 210.211 L 192.864 209.921 192.374 215.211 C 190.710 233.169, 190.443 237.110, 190.864 237.530 C 191.669 238.335, 222.855 238.043, 223.360 237.226 C 224.415 235.519, 242.083 117.660, 241.509 116.162 C 241.169 115.277, 230.678 98.229, 218.195 78.278 L 195.500 42.004 140 42.004 L 84.500 42.004 61.805 78.278 M 84.229 98.524 L 74.983 117.049 79.491 152.931 C 81.971 172.667, 84 189.306, 84 189.907 C 84 190.685, 100.156 191, 140 191 C 179.844 191, 196 190.685, 196 189.907 C 196 189.306, 198.029 172.667, 200.509 152.931 L 205.017 117.049 195.771 98.524 L 186.525 80 171.647 80 L 156.770 80 157.478 85.750 C 157.868 88.912, 158.258 91.950, 158.344 92.500 C 158.443 93.136, 151.771 93.500, 140 93.500 C 128.229 93.500, 121.557 93.136, 121.656 92.500 C 121.742 91.950, 122.132 88.912, 122.522 85.750 L 123.230 80 108.353 80 L 93.475 80 84.229 98.524 M 167.350 135.705 C 165.439 140.278, 165.153 155.951, 166.885 161.170 C 168.811 166.976, 170.541 167.773, 172.637 163.821 C 173.984 161.282, 174.410 158.029, 174.449 150 C 174.526 134.110, 170.991 126.991, 167.350 135.705 M 109.393 135.522 C 106.684 139.655, 106.597 161.205, 109.273 165.292 C 110.248 166.781, 111.414 168, 111.863 168 C 113.634 168, 115.317 162.103, 115.769 154.309 C 116.353 144.252, 115.462 137.793, 113.088 134.860 L 111.286 132.634 109.393 135.522" stroke="none" fill="#fafafa" fill-rule="evenodd"/></svg>