<svg xmlns="http://www.w3.org/2000/svg" width="512" height="512" viewBox="0 0 512 512" version="1.1"><path d="" stroke="none" fill="#080404" fill-rule="evenodd"/><path d="M 228.500 1.111 C 207.840 3.340, 181.870 9.799, 162 17.650 C 105.142 40.116, 57.429 83, 29.104 137.096 C 13.748 166.423, 4.324 197.987, 0.943 231.419 C -0.571 246.386, 0.243 279.611, 2.475 294 C 7.632 327.229, 20.045 361.361, 37.198 389.473 C 57.699 423.073, 88.968 454.448, 121.986 474.549 C 153.952 494.010, 193.067 507.286, 229.507 511.043 C 246.411 512.786, 282.035 511.787, 297.500 509.136 C 339.870 501.873, 376.739 485.978, 411.713 459.897 C 424.271 450.533, 450.504 424.310, 459.841 411.788 C 494.429 365.404, 511.648 314.543, 512.720 255.591 C 512.956 242.648, 512.718 235.318, 512.041 234.641 C 511.469 234.069, 511 232.151, 511 230.379 C 511 228.608, 509.902 220.711, 508.561 212.829 C 491.856 114.686, 417.890 33.720, 321.973 8.584 C 298.801 2.511, 286.330 0.868, 260.500 0.483 C 247.850 0.294, 233.450 0.577, 228.500 1.111 M 155.418 138.024 C 138.082 139.466, 123.535 144.391, 109.500 153.571 C 83.475 170.594, 67.371 198.762, 62.490 235.801 C 57.219 275.792, 66.681 315.127, 87.634 340.326 C 100.577 355.892, 119.674 366.693, 143 371.641 C 153.450 373.858, 181.275 374.173, 190.500 372.180 C 201.033 369.903, 212.815 365.867, 220.703 361.833 C 230.278 356.936, 241.231 349.194, 240.727 347.680 C 240.103 345.808, 216.557 312.094, 215.840 312.045 C 215.476 312.020, 211.954 313.828, 208.012 316.061 C 204.070 318.295, 197.392 321.556, 193.173 323.308 C 185.796 326.370, 184.960 326.493, 171.500 326.496 C 157.865 326.500, 157.326 326.418, 150.849 323.349 C 141.935 319.126, 136.598 313.556, 131.952 303.628 C 126.254 291.451, 124.580 281.193, 124.667 259 C 124.743 239.473, 126.352 226.077, 129.832 215.978 C 138.411 191.085, 155.068 180.609, 180.937 183.835 C 191.060 185.098, 201.934 189.418, 211.430 195.952 L 215.842 198.987 228.421 181.989 C 235.339 172.640, 241 164.639, 241 164.209 C 241 163.010, 232.295 156.779, 223.399 151.610 C 204.177 140.441, 181.308 135.871, 155.418 138.024 M 247 145.981 C 247 146.521, 263.903 201.084, 284.562 267.231 C 305.220 333.379, 322.375 388.731, 322.683 390.235 C 323.165 392.583, 322.387 393.808, 317.174 398.909 C 308.031 407.856, 293.021 414.057, 273.141 417.100 C 268.663 417.785, 265 418.629, 265 418.975 C 265 419.321, 266.350 428.558, 268 439.500 C 269.650 450.442, 271 459.756, 271 460.198 C 271 462.346, 294.049 458.948, 309.500 454.522 C 322.232 450.875, 338.923 442.342, 348.794 434.433 C 363.428 422.709, 376.495 405.409, 384.556 387.087 C 386.876 381.814, 405.496 325.750, 425.933 262.500 C 446.371 199.250, 463.282 146.938, 463.515 146.250 C 463.847 145.268, 457.352 145, 433.219 145.001 L 402.500 145.002 379.134 236.251 C 366.283 286.438, 355.466 328.061, 355.096 328.747 C 354.727 329.432, 346.854 298.607, 337.601 260.247 C 328.348 221.886, 318.301 180.262, 315.274 167.750 L 309.772 145 278.386 145 C 258.525 145, 247 145.360, 247 145.981 M 0.422 256 C 0.422 267.275, 0.568 271.887, 0.746 266.250 C 0.924 260.613, 0.924 251.387, 0.746 245.750 C 0.568 240.113, 0.422 244.725, 0.422 256" stroke="none" fill="#040404" fill-rule="evenodd"/></svg>