<svg xmlns="http://www.w3.org/2000/svg" width="646" height="648" viewBox="0 0 646 648" version="1.1"><path d="" stroke="none" fill="#cc4c14" fill-rule="evenodd"/><path d="M 259.223 5.557 C 256.576 7.411, 256.444 9.434, 258.630 14.628 C 259.527 16.758, 270.288 48.200, 282.544 84.500 C 294.800 120.800, 310.690 167.825, 317.855 189 C 325.020 210.175, 331.354 229.329, 331.930 231.565 C 333.393 237.244, 336.896 240.273, 342 240.273 C 347.197 240.273, 350.365 237.428, 352.573 230.780 C 353.474 228.067, 369.836 194.388, 388.932 155.937 L 423.652 86.027 426.175 88.764 C 427.562 90.269, 433.785 102.059, 440.004 114.965 C 446.222 127.871, 461.403 158.921, 473.739 183.965 C 486.074 209.009, 496.873 231.300, 497.736 233.500 C 501.163 242.241, 506.387 244.348, 511.993 239.250 C 514.690 236.798, 518.356 226.486, 545.862 144 C 562.826 93.125, 579.974 42.050, 583.969 30.500 C 587.963 18.950, 591.292 8.600, 591.366 7.500 C 591.498 5.528, 590.689 5.491, 533.500 4.889 C 501.600 4.554, 427.338 4.216, 368.473 4.139 C 273.075 4.015, 261.204 4.169, 259.223 5.557 M 308.634 269.586 C 294.474 273.014, 280.979 283.954, 274.645 297.142 C 267.795 311.402, 267.739 325.767, 274.479 339.570 C 289.845 371.039, 330.097 378.088, 354.587 353.598 C 364.598 343.587, 368.967 332.895, 368.988 318.355 C 369.023 294.576, 352.590 274.413, 329.122 269.438 C 320.984 267.713, 316.231 267.748, 308.634 269.586 M 525 268.691 C 507.008 271.703, 491.875 284.497, 485.011 302.500 C 482.001 310.393, 481.715 324.858, 484.407 333 C 488.069 344.076, 496.338 354.823, 505.868 360.894 C 524.715 372.900, 550.566 370.007, 566.939 354.060 C 587.272 334.254, 587.146 303.466, 566.648 282.968 C 555.642 271.962, 539.177 266.318, 525 268.691 M 93.083 270.588 C 69.620 276.896, 52.826 302.675, 56.822 326.250 C 60.316 346.871, 75.105 362.747, 95.240 367.494 C 119.681 373.257, 144.337 359.600, 153.148 335.419 C 156.310 326.740, 156.255 310.840, 153.034 302.500 C 143.353 277.437, 117.933 263.907, 93.083 270.588 M 403.845 320.847 C 401.359 323.069, 400.358 325.469, 397.940 335.011 C 388.198 373.455, 362.018 396.165, 324.664 398.576 C 314.393 399.239, 307.635 401.237, 303.654 404.788 C 302.598 405.730, 298.338 411, 294.187 416.500 C 261.552 459.744, 223.554 490.500, 178.325 510.282 C 158.348 519.019, 153.717 519.072, 141.217 510.704 C 124.566 499.557, 112.582 486.574, 104.577 471.009 C 94.915 452.221, 92.269 433.375, 95.590 407 C 96.336 401.080, 94.918 399.373, 87.701 397.503 C 79.714 395.433, 76.721 395.599, 74.260 398.250 C 71.913 400.778, 58.156 429.606, 51.545 445.850 C 26.950 506.278, 27.414 559.336, 52.875 598 C 57.798 605.477, 70.187 618.314, 77.556 623.575 C 86.299 629.817, 100.979 636.596, 112.500 639.712 C 121.934 642.263, 123.746 642.417, 144.500 642.431 C 169.259 642.447, 174.377 641.630, 198 633.892 C 222.997 625.704, 245.578 615.722, 294.805 591.098 C 328.002 574.492, 339.065 569.360, 358.500 561.554 C 391.497 548.300, 421.309 540.047, 450.741 536.017 C 494.687 529.999, 506.747 527.506, 523.344 521.010 C 556.256 508.128, 578.440 484.086, 586.561 452.500 C 588.914 443.348, 589.096 441.186, 588.709 427 C 588.382 415.044, 587.778 409.671, 586.066 403.500 C 581.983 388.781, 579.068 386.461, 569.267 390.129 C 549.516 397.520, 546.639 398.254, 535.448 398.761 C 512.446 399.803, 492.546 392.493, 476.629 377.157 C 465.721 366.646, 460.101 356.216, 454.025 335.206 C 451.510 326.508, 446.718 320.513, 441.142 319.089 C 439.139 318.577, 430.601 318.162, 422.170 318.165 C 406.967 318.172, 406.814 318.194, 403.845 320.847" stroke="none" fill="#cc4414" fill-rule="evenodd"/></svg>