<?xml version="1.0" encoding="UTF-8"?>
<svg version="1.1" xmlns="http://www.w3.org/2000/svg" width="2000" height="2000">
<path d="M0 0 C5.3199426 0.00259951 10.63988264 -0.00074732 15.95982485 -0.00324333 C25.23049772 -0.00681187 34.50116475 -0.00677254 43.77183788 -0.00419617 C57.55899787 -0.00037528 71.34615303 -0.0023671 85.133313 -0.00540448 C108.35141782 -0.01033946 131.56951997 -0.01056149 154.787625 -0.00782776 C177.77607187 -0.00512249 200.76451765 -0.00407747 223.75296466 -0.00534821 C225.20329969 -0.00542569 226.65363472 -0.00550285 228.10396976 -0.00557968 C233.93389578 -0.00589021 239.7638218 -0.00620889 245.59374783 -0.00653944 C261.88584076 -0.00745597 278.1779337 -0.00802692 294.47002666 -0.00832558 C295.21162227 -0.00833923 295.95321789 -0.00835287 296.7172861 -0.00836693 C320.30946639 -0.00877555 343.90164636 -0.00765274 367.49382656 -0.005476 C368.63977598 -0.00537063 368.63977598 -0.00537063 369.8088759 -0.00526313 C382.21116227 -0.00411851 394.61344863 -0.00289889 407.01573499 -0.00167295 C456.18379536 0.00318199 505.351853 0.00295757 554.51991336 -0.00190354 C566.91392263 -0.00312497 579.3079319 -0.00433613 591.70194118 -0.005476 C592.84703847 -0.00558168 592.84703847 -0.00558168 594.01526905 -0.00568948 C617.58352671 -0.00784941 641.15178415 -0.00875924 664.72004192 -0.00832558 C665.83163435 -0.00830521 665.83163435 -0.00830521 666.9656832 -0.00828442 C683.241627 -0.00797178 699.51757077 -0.00733783 715.79351454 -0.00641508 C721.61851449 -0.00608601 727.44351445 -0.00577292 733.2685144 -0.00546437 C734.71730167 -0.00538698 736.16608895 -0.00530825 737.61487622 -0.00522817 C760.58689645 -0.00396191 783.55891548 -0.00537293 806.53093555 -0.00807832 C830.33944511 -0.01085155 854.14795136 -0.00978984 877.95646063 -0.00454702 C891.641688 -0.00163201 905.32690888 -0.00138789 919.01213607 -0.00519319 C928.19396038 -0.00746253 937.37577955 -0.00599233 946.55760311 -0.00168843 C951.76166521 0.00065316 956.96571455 0.00158403 962.16977617 -0.00209441 C984.11323163 -0.01639581 1006.04581393 0.14771821 1027.98551433 0.57390403 C1029.054472 0.59332731 1030.12342967 0.61275059 1031.22477999 0.63276245 C1034.22275506 0.68854718 1037.22049473 0.75124689 1040.21827631 0.81652557 C1041.57063912 0.84099664 1041.57063912 0.84099664 1042.9503224 0.86596208 C1049.1167069 1.01334703 1049.1167069 1.01334703 1050.23182742 2.12846755 C1052.59358952 2.27588771 1054.92999264 2.36331215 1057.29432742 2.40971755 C1058.00081424 2.42812698 1058.70730106 2.4465364 1059.43519657 2.46550369 C1061.70065327 2.52442307 1063.96618601 2.57717182 1066.23182742 2.62846755 C1069.21116149 2.6959218 1072.19024305 2.76958946 1075.16932742 2.84721755 C1076.20682132 2.86758071 1076.20682132 2.86758071 1077.26527469 2.88835525 C1082.11902561 3.01566574 1082.11902561 3.01566574 1083.23182742 4.12846755 C1084.57550292 4.27426804 1085.92626282 4.35579275 1087.2767493 4.40971755 C1088.13433841 4.44645584 1088.99192752 4.48319412 1089.87550418 4.52104568 C1090.80777835 4.5564949 1091.74005252 4.59194412 1092.70057742 4.62846755 C1093.65122074 4.66907302 1094.60186405 4.70967849 1095.58131473 4.75151443 C1098.63131635 4.88167987 1101.6815162 5.00578418 1104.73182742 5.12846755 C1108.74249091 5.28977625 1112.75282935 5.45717512 1116.76307742 5.62846755 C1117.69535159 5.66391677 1118.62762576 5.69936599 1119.58815067 5.73588943 C1120.44573978 5.77262771 1121.30332889 5.80936599 1122.18690555 5.84721755 C1122.94555911 5.87751052 1123.70421268 5.90780349 1124.48585575 5.93901443 C1126.23182742 6.12846755 1126.23182742 6.12846755 1127.23182742 7.12846755 C1129.90243616 7.33930509 1132.55704093 7.50437952 1135.23182742 7.62846755 C1143.09669229 7.99333242 1143.09669229 7.99333242 1144.23182742 9.12846755 C1146.15491472 9.35699965 1148.08542971 9.52365613 1150.01698367 9.6636238 C1151.18680789 9.75063552 1152.35663211 9.83764724 1153.56190555 9.92729568 C1155.40945438 10.05781326 1155.40945438 10.05781326 1157.29432742 10.19096755 C1158.52989383 10.28184646 1159.76546024 10.37272537 1161.03846805 10.46635818 C1164.10264736 10.69114353 1167.16707545 10.91165316 1170.23182742 11.12846755 C1170.23182742 11.78846755 1170.23182742 12.44846755 1170.23182742 13.12846755 C1171.40551883 13.11106521 1171.40551883 13.11106521 1172.60292117 13.0933113 C1173.61483524 13.08428787 1174.6267493 13.07526443 1175.66932742 13.06596755 C1177.18333133 13.04856521 1177.18333133 13.04856521 1178.72792117 13.0308113 C1181.23182742 13.12846755 1181.23182742 13.12846755 1182.23182742 14.12846755 C1183.64303645 14.35417939 1185.06358785 14.52235104 1186.48573367 14.6636238 C1187.33973758 14.75063552 1188.19374149 14.83764724 1189.0736243 14.92729568 C1189.97145633 15.0143074 1190.86928836 15.10131912 1191.79432742 15.19096755 C1192.69602664 15.28184646 1193.59772586 15.37272537 1194.5267493 15.46635818 C1196.76141176 15.69100679 1198.99640581 15.91152524 1201.23182742 16.12846755 C1201.23182742 16.78846755 1201.23182742 17.44846755 1201.23182742 18.12846755 C1201.86991336 18.11686599 1202.5079993 18.10526443 1203.16542117 18.0933113 C1203.99171024 18.08428787 1204.8179993 18.07526443 1205.66932742 18.06596755 C1206.49303836 18.05436599 1207.3167493 18.04276443 1208.16542117 18.0308113 C1210.23182742 18.12846755 1210.23182742 18.12846755 1211.23182742 19.12846755 C1213.55924731 19.50085474 1215.89418458 19.82683622 1218.23182742 20.12846755 C1225.12071631 21.01735644 1225.12071631 21.01735644 1226.23182742 22.12846755 C1228.56000706 22.49607487 1230.89366592 22.83088336 1233.23182742 23.12846755 C1233.23182742 23.78846755 1233.23182742 24.44846755 1233.23182742 25.12846755 C1234.01686649 25.16585037 1234.80190555 25.20323318 1235.61073367 25.2417488 C1241.86030413 25.63282622 1246.50621367 26.47772045 1252.23182742 29.12846755 C1255.54281857 29.93053927 1258.87444565 30.55426745 1262.23182742 31.12846755 C1262.23182742 31.78846755 1262.23182742 32.44846755 1262.23182742 33.12846755 C1263.31463992 33.06659255 1263.31463992 33.06659255 1264.41932742 33.00346755 C1267.47849541 33.13943058 1269.43194 33.9385154 1272.23182742 35.12846755 C1273.89102638 35.49717843 1275.55659172 35.84128429 1277.23182742 36.12846755 C1277.23182742 36.78846755 1277.23182742 37.44846755 1277.23182742 38.12846755 C1277.89182742 38.25221755 1278.55182742 38.37596755 1279.23182742 38.50346755 C1282.92881325 39.27367293 1286.57188684 40.19797419 1290.23182742 41.12846755 C1290.23182742 41.78846755 1290.23182742 42.44846755 1290.23182742 43.12846755 C1290.93307742 43.25221755 1291.63432742 43.37596755 1292.35682742 43.50346755 C1295.4083913 44.166851 1298.2852368 45.1005871 1301.23182742 46.12846755 C1301.23182742 46.78846755 1301.23182742 47.44846755 1301.23182742 48.12846755 C1302.55182742 48.12846755 1303.87182742 48.12846755 1305.23182742 48.12846755 C1305.23182742 48.78846755 1305.23182742 49.44846755 1305.23182742 50.12846755 C1307.21182742 50.45846755 1309.19182742 50.78846755 1311.23182742 51.12846755 C1311.23182742 51.78846755 1311.23182742 52.44846755 1311.23182742 53.12846755 C1312.55182742 53.12846755 1313.87182742 53.12846755 1315.23182742 53.12846755 C1315.23182742 53.78846755 1315.23182742 54.44846755 1315.23182742 55.12846755 C1315.76807742 55.23159255 1316.30432742 55.33471755 1316.85682742 55.44096755 C1319.86042946 56.3104313 1322.44899245 57.70865379 1325.23182742 59.12846755 C1326.89092746 59.813748 1328.55515307 60.48738618 1330.23182742 61.12846755 C1330.23182742 61.78846755 1330.23182742 62.44846755 1330.23182742 63.12846755 C1331.31463992 63.53065505 1331.31463992 63.53065505 1332.41932742 63.94096755 C1335.22949126 65.12748117 1337.71599299 66.40332394 1340.23182742 68.12846755 C1340.23182742 68.78846755 1340.23182742 69.44846755 1340.23182742 70.12846755 C1340.94725711 70.38628005 1341.6626868 70.64409255 1342.39979617 70.90971755 C1345.40342854 72.2023152 1347.86688114 73.75623845 1350.54432742 75.62846755 C1351.86883914 76.5411238 1351.86883914 76.5411238 1353.22010867 77.47221755 C1353.88397586 78.01878005 1354.54784305 78.56534255 1355.23182742 79.12846755 C1355.23182742 79.78846755 1355.23182742 80.44846755 1355.23182742 81.12846755 C1356.22182742 81.12846755 1357.21182742 81.12846755 1358.23182742 81.12846755 C1358.23182742 81.78846755 1358.23182742 82.44846755 1358.23182742 83.12846755 C1358.89182742 83.12846755 1359.55182742 83.12846755 1360.23182742 83.12846755 C1360.23182742 83.78846755 1360.23182742 84.44846755 1360.23182742 85.12846755 C1361.55182742 85.45846755 1362.87182742 85.78846755 1364.23182742 86.12846755 C1364.23182742 86.78846755 1364.23182742 87.44846755 1364.23182742 88.12846755 C1364.82350711 88.3914363 1365.4151868 88.65440505 1366.02479617 88.92534255 C1368.33047121 90.18224151 1369.74912592 91.47615379 1371.54432742 93.37846755 C1373.84666307 95.7593477 1376.17142807 97.96586471 1378.73182742 100.06596755 C1382.06502144 102.85864362 1384.85230132 105.97795415 1387.65370242 109.2964363 C1389.19442607 111.14755619 1389.19442607 111.14755619 1390.93495242 112.7417488 C1392.23182742 114.12846755 1392.23182742 114.12846755 1392.23182742 116.12846755 C1392.89182742 116.12846755 1393.55182742 116.12846755 1394.23182742 116.12846755 C1394.56182742 117.44846755 1394.89182742 118.76846755 1395.23182742 120.12846755 C1395.89182742 120.12846755 1396.55182742 120.12846755 1397.23182742 120.12846755 C1398.67709479 121.86394925 1400.04054963 123.66822719 1401.35682742 125.50346755 C1402.08128055 126.50120193 1402.80573367 127.4989363 1403.55213992 128.52690505 C1405.23182742 131.12846755 1405.23182742 131.12846755 1405.23182742 133.12846755 C1405.89182742 133.12846755 1406.55182742 133.12846755 1407.23182742 133.12846755 C1410.23182742 137.51308294 1410.23182742 137.51308294 1410.23182742 140.12846755 C1410.89182742 140.12846755 1411.55182742 140.12846755 1412.23182742 140.12846755 C1414.27352227 143.03395638 1415.23182742 144.52988801 1415.23182742 148.12846755 C1415.89182742 148.12846755 1416.55182742 148.12846755 1417.23182742 148.12846755 C1418.07031547 149.58384323 1418.90246677 151.04287129 1419.73182742 152.50346755 C1420.42792117 153.72163162 1420.42792117 153.72163162 1421.13807742 154.96440505 C1422.23182742 157.12846755 1422.23182742 157.12846755 1422.23182742 159.12846755 C1422.89182742 159.12846755 1423.55182742 159.12846755 1424.23182742 159.12846755 C1427.23182742 165.75346755 1427.23182742 165.75346755 1427.23182742 169.12846755 C1427.89182742 169.12846755 1428.55182742 169.12846755 1429.23182742 169.12846755 C1432.23182742 175.75346755 1432.23182742 175.75346755 1432.23182742 179.12846755 C1432.89182742 179.12846755 1433.55182742 179.12846755 1434.23182742 179.12846755 C1434.47417117 179.81811599 1434.71651492 180.50776443 1434.96620242 181.2183113 C1436.90905234 186.66576356 1438.96859506 191.95220095 1441.49745242 197.1558113 C1442.23182742 199.12846755 1442.23182742 199.12846755 1442.23182742 203.12846755 C1442.89182742 203.12846755 1443.55182742 203.12846755 1444.23182742 203.12846755 C1444.43098758 204.08559646 1444.43098758 204.08559646 1444.63417117 205.0620613 C1444.81077274 205.88835037 1444.9873743 206.71463943 1445.16932742 207.56596755 C1445.34335086 208.38967849 1445.5173743 209.21338943 1445.69667117 210.0620613 C1446.03935736 212.10507959 1446.03935736 212.10507959 1447.23182742 213.12846755 C1447.27246575 214.79463871 1447.27454843 216.4623485 1447.23182742 218.12846755 C1447.89182742 218.12846755 1448.55182742 218.12846755 1449.23182742 218.12846755 C1449.43098758 219.19387771 1449.43098758 219.19387771 1449.63417117 220.2808113 C1449.81077274 221.19991287 1449.9873743 222.11901443 1450.16932742 223.06596755 C1450.43036258 224.44075271 1450.43036258 224.44075271 1450.69667117 225.8433113 C1451.00897731 228.081366 1451.00897731 228.081366 1452.23182742 229.12846755 C1452.27263525 231.12805119 1452.27437099 233.12892009 1452.23182742 235.12846755 C1452.89182742 235.12846755 1453.55182742 235.12846755 1454.23182742 235.12846755 C1454.39618289 236.2886238 1454.39618289 236.2886238 1454.56385867 237.47221755 C1455.56596069 244.3922915 1455.56596069 244.3922915 1457.73182742 251.00346755 C1459.78046681 255.87674609 1460.17220465 261.0387809 1460.80213992 266.2495613 C1460.92358087 269.01854697 1460.92358087 269.01854697 1462.23182742 270.12846755 C1462.30362706 271.64774793 1462.3157475 273.17014237 1462.29432742 274.69096755 C1462.28530399 275.51725662 1462.27628055 276.34354568 1462.26698367 277.1948738 C1462.25538211 277.83295974 1462.24378055 278.47104568 1462.23182742 279.12846755 C1462.89182742 279.12846755 1463.55182742 279.12846755 1464.23182742 279.12846755 C1464.28717655 279.69879714 1464.34252567 280.26912673 1464.39955203 280.85673904 C1464.65156485 283.42695508 1464.9103547 285.99644387 1465.16932742 288.56596755 C1465.25633914 289.46379959 1465.34335086 290.36163162 1465.4329993 291.28667068 C1465.52001102 292.14067459 1465.60702274 292.99467849 1465.69667117 293.8745613 C1465.77522342 294.66532058 1465.85377567 295.45607986 1465.93470828 296.27080154 C1466.04734241 298.13950103 1466.04734241 298.13950103 1467.23182742 299.12846755 C1467.55534044 301.96819291 1467.74487033 304.80920492 1467.95057742 307.65971755 C1467.96568007 310.06982806 1467.96568007 310.06982806 1469.23182742 311.12846755 C1469.44800939 312.95531775 1469.60313988 314.78947117 1469.73182742 316.6245613 C1469.81432742 317.7402449 1469.89682742 318.85592849 1469.98182742 320.00542068 C1470.10557742 321.76789138 1470.10557742 321.76789138 1470.23182742 323.56596755 C1470.39466084 325.8774387 1470.56114318 328.18865662 1470.73182742 330.4995613 C1470.80401492 331.53008621 1470.87620242 332.56061111 1470.95057742 333.62236404 C1471.08542412 336.12288751 1471.08542412 336.12288751 1472.23182742 338.12846755 C1472.49623554 341.56944538 1472.67642655 345.00395256 1472.83729617 348.45073318 C1472.69822029 352.09336209 1472.69822029 352.09336209 1474.23182742 355.12846755 C1474.45159887 358.19267671 1474.61151316 361.23956025 1474.73182742 364.30815505 C1474.77243289 365.23185897 1474.81303836 366.15556289 1474.8548743 367.10725784 C1474.98502839 370.07248714 1475.10908216 373.03792289 1475.23182742 376.00346755 C1475.39355483 379.89692853 1475.56104406 383.79008212 1475.73182742 387.68315505 C1475.76727664 388.58323287 1475.80272586 389.48331069 1475.8392493 390.4106636 C1475.87598758 391.2480809 1475.91272586 392.08549819 1475.95057742 392.94829177 C1475.98087039 393.68473922 1476.01116336 394.42118667 1476.0423743 395.17995071 C1476.17965117 397.34349972 1476.17965117 397.34349972 1477.23182742 400.12846755 C1477.37124216 402.29137217 1477.45715948 404.45788966 1477.51307742 406.6245613 C1477.55046024 407.9052449 1477.58784305 409.18592849 1477.62635867 410.50542068 C1477.66202452 411.85892297 1477.69717554 413.21243892 1477.73182742 414.56596755 C1477.79971443 417.21070568 1477.8734625 419.85505117 1477.95057742 422.4995613 C1477.98087039 423.67446121 1478.01116336 424.84936111 1478.0423743 426.05986404 C1478.10484431 428.93285985 1478.10484431 428.93285985 1478.73583392 430.83362274 C1479.45926919 434.18078691 1479.36819446 437.50694024 1479.35717659 440.91458815 C1479.35857891 441.70914013 1479.35998122 442.50369211 1479.36142603 443.32232142 C1479.3649283 446.00650544 1479.36125771 448.69063269 1479.35766857 451.37481594 C1479.35871096 453.31824718 1479.36019165 455.26167823 1479.36207293 457.20510885 C1479.36599034 462.58248175 1479.36362484 467.95983685 1479.36029498 473.33720948 C1479.35777045 479.1733361 1479.36101333 485.00945989 1479.36353831 490.84558612 C1479.36716023 501.08628383 1479.36706783 511.32697672 1479.36449115 521.56767463 C1479.36174248 532.55879943 1479.36115748 543.54992115 1479.36322849 554.54104614 C1479.36335766 555.23456316 1479.36348683 555.92808018 1479.36361992 556.64261287 C1479.36415317 559.46706818 1479.36470188 562.29152349 1479.36527019 565.11597879 C1479.37056325 591.44018205 1479.37091661 617.76438324 1479.36812274 644.0885868 C1479.36803995 644.86906352 1479.36795715 645.64954023 1479.36787185 646.45366776 C1479.36778892 647.23538549 1479.36770599 648.01710323 1479.36762055 648.82250939 C1479.36509977 672.61499977 1479.36444485 696.40748929 1479.36564319 720.19997978 C1479.36572067 721.79175372 1479.36579783 723.38352767 1479.36587466 724.97530161 C1479.36618511 731.37156419 1479.36650378 737.76782678 1479.36683442 744.16408936 C1479.36775153 762.04522746 1479.36832206 779.92636557 1479.36862056 797.80750369 C1479.36863421 798.62183268 1479.36864785 799.43616166 1479.36866191 800.27516728 C1479.36907132 826.23156325 1479.36794361 852.18795893 1479.36577098 878.14435481 C1479.36570073 878.98650122 1479.36563048 879.82864763 1479.36555811 880.69631362 C1479.36441309 894.37321779 1479.36319366 908.05012196 1479.36196793 921.72702612 C1479.35711072 975.98266693 1479.35733743 1030.23830527 1479.36219852 1084.49394607 C1479.36341965 1098.16743437 1479.36463067 1111.84092266 1479.36577098 1125.51441097 C1479.36587665 1126.77719508 1479.36587665 1126.77719508 1479.36598446 1128.06548999 C1479.36813962 1153.9969303 1479.36905512 1179.92837042 1479.36862056 1205.85981082 C1479.36860018 1207.08035265 1479.36860018 1207.08035265 1479.3685794 1208.32555188 C1479.36826696 1226.18480407 1479.36763341 1244.04405624 1479.36671006 1261.90330841 C1479.3663809 1268.29299027 1479.36606782 1274.68267213 1479.36575935 1281.072354 C1479.36568196 1282.66202503 1479.36560323 1284.25169606 1479.36552315 1285.8413671 C1479.36432808 1309.63137863 1479.36534886 1333.42138921 1479.36787185 1357.21140062 C1479.36799604 1358.38248827 1479.36799604 1358.38248827 1479.36812274 1359.57723426 C1479.36820543 1360.35652709 1479.36828811 1361.13581993 1479.3683733 1361.93872769 C1479.37112722 1388.18184327 1479.37012564 1414.42495636 1479.364842 1440.66807158 C1479.36428961 1443.48207844 1479.36375291 1446.2960853 1479.36322849 1449.11009216 C1479.36309828 1449.80072706 1479.36296807 1450.49136196 1479.36283392 1451.20292519 C1479.36085623 1462.16900556 1479.36224038 1473.13508286 1479.36499749 1484.10116296 C1479.3676332 1494.86603109 1479.36664684 1505.63089376 1479.3619834 1516.39576122 C1479.35958794 1522.1617327 1479.35882552 1527.92769242 1479.36238939 1533.69366355 C1479.36559114 1538.92671554 1479.36428918 1544.15974523 1479.35920873 1549.39279555 C1479.35819163 1551.28601095 1479.35889327 1553.17922813 1479.36141467 1555.07244212 C1479.36457129 1557.62112077 1479.36169873 1560.16971967 1479.35717659 1562.71839445 C1479.35956733 1563.46498401 1479.36195807 1564.21157358 1479.36442126 1564.98078707 C1479.34598312 1570.01431185 1479.34598312 1570.01431185 1478.23182742 1571.12846755 C1478.08440727 1573.49022965 1477.99698283 1575.82663276 1477.95057742 1578.19096755 C1477.932168 1578.89745437 1477.91375858 1579.60394119 1477.89479129 1580.33183669 C1477.8358719 1582.5972934 1477.78312316 1584.86282614 1477.73182742 1587.12846755 C1477.66437318 1590.10780162 1477.59070552 1593.08688318 1477.51307742 1596.06596755 C1477.49950199 1596.75763015 1477.48592655 1597.44929275 1477.47193973 1598.16191482 C1477.34462924 1603.01566574 1477.34462924 1603.01566574 1476.23182742 1604.12846755 C1476.08602694 1605.47214305 1476.00450223 1606.82290295 1475.95057742 1608.17338943 C1475.91383914 1609.03097854 1475.87710086 1609.88856765 1475.8392493 1610.77214431 C1475.80380008 1611.70441848 1475.76835086 1612.63669265 1475.73182742 1613.59721755 C1475.69122196 1614.54786086 1475.65061649 1615.49850418 1475.60878055 1616.47795486 C1475.47861511 1619.52795648 1475.3545108 1622.57815633 1475.23182742 1625.62846755 C1475.07051873 1629.63913104 1474.90311986 1633.64946948 1474.73182742 1637.65971755 C1474.69637821 1638.59199172 1474.66092899 1639.52426589 1474.62440555 1640.4847908 C1474.58766727 1641.34237991 1474.55092899 1642.19996902 1474.51307742 1643.08354568 C1474.46763797 1644.22152603 1474.46763797 1644.22152603 1474.42128055 1645.38249587 C1474.23182742 1647.12846755 1474.23182742 1647.12846755 1473.23182742 1648.12846755 C1473.02098989 1650.79907629 1472.85591546 1653.45368106 1472.73182742 1656.12846755 C1472.36696256 1663.99333242 1472.36696256 1663.99333242 1471.23182742 1665.12846755 C1471.00329532 1667.05155485 1470.83663885 1668.98206984 1470.69667117 1670.9136238 C1470.60965946 1672.08344802 1470.52264774 1673.25327224 1470.4329993 1674.45854568 C1470.34598758 1675.6902449 1470.25897586 1676.92194412 1470.16932742 1678.19096755 C1470.03300907 1680.04431716 1470.03300907 1680.04431716 1469.8939368 1681.93510818 C1469.66915144 1684.99928749 1469.44864182 1688.06371558 1469.23182742 1691.12846755 C1468.57182742 1691.12846755 1467.91182742 1691.12846755 1467.23182742 1691.12846755 C1467.24342899 1691.91092849 1467.25503055 1692.69338943 1467.26698367 1693.4995613 C1467.28051883 1695.0174324 1467.28051883 1695.0174324 1467.29432742 1696.56596755 C1467.30592899 1697.57530349 1467.31753055 1698.58463943 1467.32948367 1699.6245613 C1467.23182742 1702.12846755 1467.23182742 1702.12846755 1466.23182742 1703.12846755 C1466.00611559 1704.53967657 1465.83794394 1705.96022798 1465.69667117 1707.3823738 C1465.60965946 1708.23637771 1465.52264774 1709.09038162 1465.4329993 1709.97026443 C1465.34598758 1710.86809646 1465.25897586 1711.76592849 1465.16932742 1712.69096755 C1465.03300907 1714.04351638 1465.03300907 1714.04351638 1464.8939368 1715.42338943 C1464.66928819 1717.65805189 1464.44876974 1719.89304594 1464.23182742 1722.12846755 C1463.57182742 1722.12846755 1462.91182742 1722.12846755 1462.23182742 1722.12846755 C1462.24342899 1722.76655349 1462.25503055 1723.40463943 1462.26698367 1724.0620613 C1462.27600711 1724.88835037 1462.28503055 1725.71463943 1462.29432742 1726.56596755 C1462.30592899 1727.38967849 1462.31753055 1728.21338943 1462.32948367 1729.0620613 C1462.23182742 1731.12846755 1462.23182742 1731.12846755 1461.23182742 1732.12846755 C1460.85944024 1734.45588744 1460.53345876 1736.7908247 1460.23182742 1739.12846755 C1459.34293854 1746.01735644 1459.34293854 1746.01735644 1458.23182742 1747.12846755 C1457.86422011 1749.45664719 1457.52941162 1751.79030605 1457.23182742 1754.12846755 C1456.57182742 1754.12846755 1455.91182742 1754.12846755 1455.23182742 1754.12846755 C1455.19444461 1754.91350662 1455.1570618 1755.69854568 1455.11854617 1756.5073738 C1454.72746876 1762.75694426 1453.88257453 1767.4028538 1451.23182742 1773.12846755 C1450.42975571 1776.4394587 1449.80602753 1779.77108578 1449.23182742 1783.12846755 C1448.57182742 1783.12846755 1447.91182742 1783.12846755 1447.23182742 1783.12846755 C1447.29370242 1784.21128005 1447.29370242 1784.21128005 1447.35682742 1785.31596755 C1447.2208644 1788.37513554 1446.42177958 1790.32858013 1445.23182742 1793.12846755 C1444.86311655 1794.78766651 1444.51901069 1796.45323185 1444.23182742 1798.12846755 C1443.57182742 1798.12846755 1442.91182742 1798.12846755 1442.23182742 1798.12846755 C1442.10807742 1798.78846755 1441.98432742 1799.44846755 1441.85682742 1800.12846755 C1441.08662204 1803.82545338 1440.16232079 1807.46852697 1439.23182742 1811.12846755 C1438.57182742 1811.12846755 1437.91182742 1811.12846755 1437.23182742 1811.12846755 C1437.10807742 1811.82971755 1436.98432742 1812.53096755 1436.85682742 1813.25346755 C1436.19344397 1816.30503143 1435.25970787 1819.18187693 1434.23182742 1822.12846755 C1433.57182742 1822.12846755 1432.91182742 1822.12846755 1432.23182742 1822.12846755 C1432.23182742 1823.44846755 1432.23182742 1824.76846755 1432.23182742 1826.12846755 C1431.57182742 1826.12846755 1430.91182742 1826.12846755 1430.23182742 1826.12846755 C1429.90182742 1828.10846755 1429.57182742 1830.08846755 1429.23182742 1832.12846755 C1428.57182742 1832.12846755 1427.91182742 1832.12846755 1427.23182742 1832.12846755 C1427.23182742 1833.44846755 1427.23182742 1834.76846755 1427.23182742 1836.12846755 C1426.57182742 1836.12846755 1425.91182742 1836.12846755 1425.23182742 1836.12846755 C1425.12870242 1836.66471755 1425.02557742 1837.20096755 1424.91932742 1837.75346755 C1424.04986368 1840.75706959 1422.65164119 1843.34563258 1421.23182742 1846.12846755 C1420.54654698 1847.78756759 1419.8729088 1849.4517932 1419.23182742 1851.12846755 C1418.57182742 1851.12846755 1417.91182742 1851.12846755 1417.23182742 1851.12846755 C1416.82963992 1852.21128005 1416.82963992 1852.21128005 1416.41932742 1853.31596755 C1415.23281381 1856.12613138 1413.95697104 1858.61263312 1412.23182742 1861.12846755 C1411.57182742 1861.12846755 1410.91182742 1861.12846755 1410.23182742 1861.12846755 C1409.97401492 1861.84389724 1409.71620242 1862.55932693 1409.45057742 1863.2964363 C1408.15797977 1866.30006866 1406.60405653 1868.76352127 1404.73182742 1871.44096755 C1403.81917117 1872.76547927 1403.81917117 1872.76547927 1402.88807742 1874.1167488 C1402.34151492 1874.78061599 1401.79495242 1875.44448318 1401.23182742 1876.12846755 C1400.57182742 1876.12846755 1399.91182742 1876.12846755 1399.23182742 1876.12846755 C1399.23182742 1877.11846755 1399.23182742 1878.10846755 1399.23182742 1879.12846755 C1398.57182742 1879.12846755 1397.91182742 1879.12846755 1397.23182742 1879.12846755 C1397.23182742 1879.78846755 1397.23182742 1880.44846755 1397.23182742 1881.12846755 C1396.57182742 1881.12846755 1395.91182742 1881.12846755 1395.23182742 1881.12846755 C1394.90182742 1882.44846755 1394.57182742 1883.76846755 1394.23182742 1885.12846755 C1393.57182742 1885.12846755 1392.91182742 1885.12846755 1392.23182742 1885.12846755 C1391.96885867 1885.72014724 1391.70588992 1886.31182693 1391.43495242 1886.9214363 C1390.17805347 1889.22711134 1388.88414119 1890.64576605 1386.98182742 1892.44096755 C1384.60094728 1894.7433032 1382.39443027 1897.0680682 1380.29432742 1899.62846755 C1377.50165136 1902.96166157 1374.38234083 1905.74894145 1371.06385867 1908.55034255 C1369.21273879 1910.09106619 1369.21273879 1910.09106619 1367.61854617 1911.83159255 C1366.23182742 1913.12846755 1366.23182742 1913.12846755 1364.23182742 1913.12846755 C1364.23182742 1913.78846755 1364.23182742 1914.44846755 1364.23182742 1915.12846755 C1362.91182742 1915.45846755 1361.59182742 1915.78846755 1360.23182742 1916.12846755 C1360.23182742 1916.78846755 1360.23182742 1917.44846755 1360.23182742 1918.12846755 C1358.49634573 1919.57373492 1356.69206779 1920.93718976 1354.85682742 1922.25346755 C1353.85909305 1922.97792068 1352.86135867 1923.7023738 1351.83338992 1924.44878005 C1349.23182742 1926.12846755 1349.23182742 1926.12846755 1347.23182742 1926.12846755 C1347.23182742 1926.78846755 1347.23182742 1927.44846755 1347.23182742 1928.12846755 C1342.84721204 1931.12846755 1342.84721204 1931.12846755 1340.23182742 1931.12846755 C1340.23182742 1931.78846755 1340.23182742 1932.44846755 1340.23182742 1933.12846755 C1337.3263386 1935.1701624 1335.83040697 1936.12846755 1332.23182742 1936.12846755 C1332.23182742 1936.78846755 1332.23182742 1937.44846755 1332.23182742 1938.12846755 C1330.77645175 1938.9669556 1329.31742369 1939.7991069 1327.85682742 1940.62846755 C1327.04471805 1941.09253005 1326.23260867 1941.55659255 1325.39588992 1942.03471755 C1323.23182742 1943.12846755 1323.23182742 1943.12846755 1321.23182742 1943.12846755 C1321.23182742 1943.78846755 1321.23182742 1944.44846755 1321.23182742 1945.12846755 C1314.60682742 1948.12846755 1314.60682742 1948.12846755 1311.23182742 1948.12846755 C1311.23182742 1948.78846755 1311.23182742 1949.44846755 1311.23182742 1950.12846755 C1304.60682742 1953.12846755 1304.60682742 1953.12846755 1301.23182742 1953.12846755 C1301.23182742 1953.78846755 1301.23182742 1954.44846755 1301.23182742 1955.12846755 C1299.98519412 1955.63680347 1298.73433356 1956.134779 1297.48182742 1956.62846755 C1296.78573367 1956.90690505 1296.08963992 1957.18534255 1295.37245242 1957.47221755 C1293.23182742 1958.12846755 1293.23182742 1958.12846755 1289.23182742 1958.12846755 C1289.23182742 1958.78846755 1289.23182742 1959.44846755 1289.23182742 1960.12846755 C1287.98519412 1960.63680347 1286.73433356 1961.134779 1285.48182742 1961.62846755 C1284.78573367 1961.90690505 1284.08963992 1962.18534255 1283.37245242 1962.47221755 C1281.23182742 1963.12846755 1281.23182742 1963.12846755 1277.23182742 1963.12846755 C1277.23182742 1963.78846755 1277.23182742 1964.44846755 1277.23182742 1965.12846755 C1276.27469852 1965.32762771 1276.27469852 1965.32762771 1275.29823367 1965.5308113 C1274.47194461 1965.70741287 1273.64565555 1965.88401443 1272.79432742 1966.06596755 C1271.55876102 1966.32700271 1271.55876102 1966.32700271 1270.29823367 1966.5933113 C1268.25521539 1966.93599749 1268.25521539 1966.93599749 1267.23182742 1968.12846755 C1265.56565627 1968.16910587 1263.89794648 1968.17118856 1262.23182742 1968.12846755 C1262.23182742 1968.78846755 1262.23182742 1969.44846755 1262.23182742 1970.12846755 C1261.52155399 1970.26124099 1260.81128055 1970.39401443 1260.07948367 1970.5308113 C1259.16038211 1970.70741287 1258.24128055 1970.88401443 1257.29432742 1971.06596755 C1255.91954227 1971.32700271 1255.91954227 1971.32700271 1254.51698367 1971.5933113 C1252.27892898 1971.90561744 1252.27892898 1971.90561744 1251.23182742 1973.12846755 C1249.23224379 1973.16927538 1247.23137488 1973.17101112 1245.23182742 1973.12846755 C1245.23182742 1973.78846755 1245.23182742 1974.44846755 1245.23182742 1975.12846755 C1244.07167117 1975.29282302 1244.07167117 1975.29282302 1242.88807742 1975.4604988 C1235.96800348 1976.46260081 1235.96800348 1976.46260081 1229.35682742 1978.62846755 C1224.48354889 1980.67710694 1219.32151408 1981.06884478 1214.11073367 1981.69878005 C1211.34174801 1981.820221 1211.34174801 1981.820221 1210.23182742 1983.12846755 C1208.71254705 1983.20026719 1207.19015261 1983.21238763 1205.66932742 1983.19096755 C1204.84303836 1983.18194412 1204.0167493 1983.17292068 1203.16542117 1983.1636238 C1202.52733524 1983.15202224 1201.8892493 1983.14042068 1201.23182742 1983.12846755 C1201.23182742 1983.78846755 1201.23182742 1984.44846755 1201.23182742 1985.12846755 C1200.66149783 1985.18381668 1200.09116825 1985.2391658 1199.50355594 1985.29619216 C1196.9333399 1985.54820498 1194.36385111 1985.80699483 1191.79432742 1986.06596755 C1190.89649539 1986.15297927 1189.99866336 1986.23999099 1189.0736243 1986.32963943 C1188.21962039 1986.41665115 1187.36561649 1986.50366287 1186.48573367 1986.5933113 C1185.29959476 1986.71113967 1185.29959476 1986.71113967 1184.08949344 1986.83134841 C1182.22079395 1986.94398254 1182.22079395 1986.94398254 1181.23182742 1988.12846755 C1178.39210207 1988.45198057 1175.55109006 1988.64151046 1172.70057742 1988.84721755 C1170.29046692 1988.8623202 1170.29046692 1988.8623202 1169.23182742 1990.12846755 C1167.40497723 1990.34464952 1165.57082381 1990.49978001 1163.73573367 1990.62846755 C1162.06220828 1990.75221755 1162.06220828 1990.75221755 1160.3548743 1990.87846755 C1158.5924036 1991.00221755 1158.5924036 1991.00221755 1156.79432742 1991.12846755 C1154.48285628 1991.29130096 1152.17163836 1991.45778331 1149.86073367 1991.62846755 C1148.83020877 1991.70065505 1147.79968387 1991.77284255 1146.73793094 1991.84721755 C1144.23740747 1991.98206425 1144.23740747 1991.98206425 1142.23182742 1993.12846755 C1138.7908496 1993.39287567 1135.35634242 1993.57306668 1131.9095618 1993.7339363 C1128.26693289 1993.59486042 1128.26693289 1993.59486042 1125.23182742 1995.12846755 C1122.16761827 1995.348239 1119.12073473 1995.50815329 1116.05213992 1995.62846755 C1115.12843601 1995.66907302 1114.20473209 1995.70967849 1113.25303714 1995.75151443 C1110.28780784 1995.88166852 1107.32237209 1996.00572229 1104.35682742 1996.12846755 C1100.46336645 1996.29019496 1096.57021285 1996.45768419 1092.67713992 1996.62846755 C1091.77706211 1996.66391677 1090.87698429 1996.69936599 1089.94963138 1996.73588943 C1089.11221408 1996.77262771 1088.27479679 1996.80936599 1087.41200321 1996.84721755 C1086.67555576 1996.87751052 1085.93910831 1996.90780349 1085.18034427 1996.93901443 C1083.01679525 1997.0762913 1083.01679525 1997.0762913 1080.23182742 1998.12846755 C1078.06892281 1998.26788229 1075.90240532 1998.35379961 1073.73573367 1998.40971755 C1072.45505008 1998.44710037 1071.17436649 1998.48448318 1069.8548743 1998.5229988 C1068.50137201 1998.55866464 1067.14785606 1998.59381567 1065.79432742 1998.62846755 C1063.1495893 1998.69635456 1060.50524381 1998.77010263 1057.86073367 1998.84721755 C1056.68583377 1998.87751052 1055.51093387 1998.90780349 1054.30043094 1998.93901443 C1051.42743513 1999.00148443 1051.42743513 1999.00148443 1049.52667224 1999.63247405 C1046.17950807 2000.35590932 1042.85335473 2000.26483459 1039.44570683 2000.25381672 C1038.65115485 2000.25521904 1037.85660287 2000.25662135 1037.03797356 2000.25806616 C1034.35378954 2000.26156843 1031.66966229 2000.25789784 1028.98547904 2000.25430869 C1027.0420478 2000.25535109 1025.09861675 2000.25683178 1023.15518613 2000.25871306 C1017.77781323 2000.26263047 1012.40045813 2000.26026497 1007.0230855 2000.25693511 C1001.18695887 2000.25441058 995.35083509 2000.25765346 989.51470886 2000.26017844 C979.27401115 2000.26380036 969.03331826 2000.26370796 958.79262035 2000.26113128 C947.80149555 2000.25838261 936.81037383 2000.25779761 925.81924884 2000.25986862 C925.12573182 2000.25999779 924.4322148 2000.26012696 923.7176821 2000.26026005 C920.8932268 2000.2607933 918.06877149 2000.26134201 915.24431619 2000.26191032 C888.92011293 2000.26720338 862.59591174 2000.26755674 836.27170818 2000.26476287 C835.49123146 2000.26468008 834.71075475 2000.26459728 833.90662722 2000.26451198 C833.12490948 2000.26442905 832.34319174 2000.26434612 831.53778559 2000.26426068 C807.74529521 2000.2617399 783.95280569 2000.26108498 760.1603152 2000.26228332 C758.56854126 2000.2623608 756.97676731 2000.26243796 755.38499337 2000.26251479 C748.98873078 2000.26282524 742.5924682 2000.26314391 736.19620562 2000.26347455 C718.31506751 2000.26439166 700.43392941 2000.26496219 682.55279128 2000.26526069 C681.7384623 2000.26527434 680.92413332 2000.26528798 680.0851277 2000.26530204 C654.12873173 2000.26571145 628.17233605 2000.26458374 602.21594016 2000.26241111 C601.37379376 2000.26234086 600.53164735 2000.26227061 599.66398136 2000.26219824 C585.98707719 2000.26105322 572.31017302 2000.25983379 558.63326886 2000.25860806 C504.37762805 2000.25375085 450.12198971 2000.25397756 395.86634891 2000.25883865 C382.19286061 2000.26005978 368.51937232 2000.2612708 354.84588401 2000.26241111 C354.00402794 2000.26248156 353.16217186 2000.26255201 352.29480499 2000.26262459 C326.36336467 2000.26477975 300.43192456 2000.26569525 274.50048416 2000.26526069 C273.27994233 2000.26524031 273.27994233 2000.26524031 272.0347431 2000.26521953 C254.17549091 2000.26490709 236.31623874 2000.26427354 218.45698657 2000.26335019 C212.06730471 2000.26302103 205.67762284 2000.26270795 199.28794098 2000.26239948 C197.69826995 2000.26232209 196.10859892 2000.26224336 194.51892788 2000.26216328 C170.72891635 2000.26096821 146.93890577 2000.26198898 123.14889436 2000.26451198 C121.9778067 2000.26463617 121.9778067 2000.26463617 120.78306072 2000.26476287 C119.61412147 2000.2648869 119.61412147 2000.2648869 118.42156729 2000.26501343 C92.17845171 2000.26776735 65.93533862 2000.26676577 39.69222339 2000.26148213 C36.87821654 2000.26092974 34.06420968 2000.26039304 31.25020282 2000.25986862 C30.21425047 2000.25967331 30.21425047 2000.25967331 29.15736979 2000.25947405 C18.19128942 2000.25749636 7.22521212 2000.25888051 -3.74086798 2000.26163762 C-14.50573611 2000.26427333 -25.27059878 2000.26328697 -36.03546624 2000.25862353 C-41.80143772 2000.25622806 -47.56739744 2000.25546565 -53.33336858 2000.25902952 C-58.56642056 2000.26223127 -63.79945025 2000.26092931 -69.03250057 2000.25584886 C-70.92571597 2000.25483176 -72.81893315 2000.2555334 -74.71214714 2000.25805479 C-77.26082579 2000.26121142 -79.80942469 2000.25833886 -82.35809947 2000.25381672 C-83.10468904 2000.25620746 -83.8512786 2000.2585982 -84.62049209 2000.26106139 C-89.65401688 2000.24262325 -89.65401688 2000.24262325 -90.76817258 1999.12846755 C-93.12993467 1998.9810474 -95.46633779 1998.89362296 -97.83067258 1998.84721755 C-98.53715939 1998.82880813 -99.24364621 1998.81039871 -99.97154172 1998.79143142 C-102.23699842 1998.73251203 -104.50253116 1998.67976329 -106.76817258 1998.62846755 C-109.74750664 1998.56101331 -112.72658821 1998.48734565 -115.70567258 1998.40971755 C-116.39733517 1998.39614211 -117.08899777 1998.38256668 -117.80161984 1998.36857986 C-122.65537076 1998.24126937 -122.65537076 1998.24126937 -123.76817258 1997.12846755 C-125.11184807 1996.98266707 -126.46260797 1996.90114236 -127.81309445 1996.84721755 C-128.67068356 1996.81047927 -129.52827267 1996.77374099 -130.41184933 1996.73588943 C-131.81026059 1996.6827156 -131.81026059 1996.6827156 -133.23692258 1996.62846755 C-134.18756589 1996.58786209 -135.1382092 1996.54725662 -136.11765988 1996.50542068 C-139.1676615 1996.37525524 -142.21786136 1996.25115093 -145.26817258 1996.12846755 C-149.27883606 1995.96715886 -153.2891745 1995.79975998 -157.29942258 1995.62846755 C-158.69783383 1995.57529373 -158.69783383 1995.57529373 -160.12449582 1995.52104568 C-160.98208493 1995.4843074 -161.83967404 1995.44756912 -162.7232507 1995.40971755 C-163.86123105 1995.3642781 -163.86123105 1995.3642781 -165.0222009 1995.31792068 C-166.76817258 1995.12846755 -166.76817258 1995.12846755 -167.76817258 1994.12846755 C-170.43878131 1993.91763002 -173.09338608 1993.75255559 -175.76817258 1993.62846755 C-183.63303744 1993.26360269 -183.63303744 1993.26360269 -184.76817258 1992.12846755 C-186.69125987 1991.89993545 -188.62177486 1991.73327898 -190.55332883 1991.5933113 C-191.72315304 1991.50629959 -192.89297726 1991.41928787 -194.0982507 1991.32963943 C-195.32994992 1991.24262771 -196.56164914 1991.15561599 -197.83067258 1991.06596755 C-199.06623898 1990.97508865 -200.30180539 1990.88420974 -201.5748132 1990.79057693 C-204.63899251 1990.56579157 -207.7034206 1990.34528195 -210.76817258 1990.12846755 C-210.76817258 1989.46846755 -210.76817258 1988.80846755 -210.76817258 1988.12846755 C-211.55063351 1988.14006912 -212.33309445 1988.15167068 -213.13926633 1988.1636238 C-214.65713742 1988.17715896 -214.65713742 1988.17715896 -216.20567258 1988.19096755 C-217.21500851 1988.20256912 -218.22434445 1988.21417068 -219.26426633 1988.2261238 C-221.76817258 1988.12846755 -221.76817258 1988.12846755 -222.76817258 1987.12846755 C-224.1793816 1986.90275572 -225.599933 1986.73458407 -227.02207883 1986.5933113 C-227.87608273 1986.50629959 -228.73008664 1986.41928787 -229.60996945 1986.32963943 C-230.50780148 1986.24262771 -231.40563351 1986.15561599 -232.33067258 1986.06596755 C-233.6832214 1985.92964919 -233.6832214 1985.92964919 -235.06309445 1985.79057693 C-237.29775691 1985.56592832 -239.53275097 1985.34540987 -241.76817258 1985.12846755 C-241.76817258 1984.46846755 -241.76817258 1983.80846755 -241.76817258 1983.12846755 C-242.40625851 1983.14006912 -243.04434445 1983.15167068 -243.70176633 1983.1636238 C-244.94119992 1983.17715896 -244.94119992 1983.17715896 -246.20567258 1983.19096755 C-247.02938351 1983.20256912 -247.85309445 1983.21417068 -248.70176633 1983.2261238 C-250.76817258 1983.12846755 -250.76817258 1983.12846755 -251.76817258 1982.12846755 C-254.09559246 1981.75608037 -256.43052973 1981.43009889 -258.76817258 1981.12846755 C-265.65706146 1980.23957867 -265.65706146 1980.23957867 -266.76817258 1979.12846755 C-269.09635221 1978.76086024 -271.43001107 1978.42605175 -273.76817258 1978.12846755 C-273.76817258 1977.46846755 -273.76817258 1976.80846755 -273.76817258 1976.12846755 C-274.94573117 1976.07239334 -274.94573117 1976.07239334 -276.14707883 1976.0151863 C-282.39664928 1975.62410889 -287.04255882 1974.77921466 -292.76817258 1972.12846755 C-296.07916372 1971.32639584 -299.4107908 1970.70266766 -302.76817258 1970.12846755 C-302.76817258 1969.46846755 -302.76817258 1968.80846755 -302.76817258 1968.12846755 C-303.49004758 1968.16971755 -304.21192258 1968.21096755 -304.95567258 1968.25346755 C-308.01484056 1968.11750453 -309.96828515 1967.31841971 -312.76817258 1966.12846755 C-314.42737153 1965.75975668 -316.09293687 1965.41565082 -317.76817258 1965.12846755 C-317.76817258 1964.46846755 -317.76817258 1963.80846755 -317.76817258 1963.12846755 C-318.42817258 1963.00471755 -319.08817258 1962.88096755 -319.76817258 1962.75346755 C-323.4651584 1961.98326217 -327.10823199 1961.05896092 -330.76817258 1960.12846755 C-330.76817258 1959.46846755 -330.76817258 1958.80846755 -330.76817258 1958.12846755 C-331.82004758 1957.94284255 -331.82004758 1957.94284255 -332.89317258 1957.75346755 C-335.94473645 1957.0900841 -338.82158195 1956.156348 -341.76817258 1955.12846755 C-341.76817258 1954.46846755 -341.76817258 1953.80846755 -341.76817258 1953.12846755 C-343.08817258 1953.12846755 -344.40817258 1953.12846755 -345.76817258 1953.12846755 C-345.76817258 1952.46846755 -345.76817258 1951.80846755 -345.76817258 1951.12846755 C-347.74817258 1950.79846755 -349.72817258 1950.46846755 -351.76817258 1950.12846755 C-351.76817258 1949.46846755 -351.76817258 1948.80846755 -351.76817258 1948.12846755 C-353.08817258 1948.12846755 -354.40817258 1948.12846755 -355.76817258 1948.12846755 C-355.76817258 1947.46846755 -355.76817258 1946.80846755 -355.76817258 1946.12846755 C-356.30442258 1946.02534255 -356.84067258 1945.92221755 -357.39317258 1945.81596755 C-360.39677461 1944.94650381 -362.9853376 1943.54828132 -365.76817258 1942.12846755 C-367.42727261 1941.4431871 -369.09149822 1940.76954893 -370.76817258 1940.12846755 C-370.76817258 1939.46846755 -370.76817258 1938.80846755 -370.76817258 1938.12846755 C-371.85098508 1937.72628005 -371.85098508 1937.72628005 -372.95567258 1937.31596755 C-375.76583641 1936.12945394 -378.25233814 1934.85361117 -380.76817258 1933.12846755 C-380.76817258 1932.46846755 -380.76817258 1931.80846755 -380.76817258 1931.12846755 C-381.48360226 1930.87065505 -382.19903195 1930.61284255 -382.93614133 1930.34721755 C-385.93977369 1929.0546199 -388.40322629 1927.50069666 -391.08067258 1925.62846755 C-392.40518429 1924.7158113 -392.40518429 1924.7158113 -393.75645383 1923.78471755 C-394.42032101 1923.23815505 -395.0841882 1922.69159255 -395.76817258 1922.12846755 C-395.76817258 1921.46846755 -395.76817258 1920.80846755 -395.76817258 1920.12846755 C-396.75817258 1920.12846755 -397.74817258 1920.12846755 -398.76817258 1920.12846755 C-398.76817258 1919.46846755 -398.76817258 1918.80846755 -398.76817258 1918.12846755 C-399.42817258 1918.12846755 -400.08817258 1918.12846755 -400.76817258 1918.12846755 C-400.76817258 1917.46846755 -400.76817258 1916.80846755 -400.76817258 1916.12846755 C-402.08817258 1915.79846755 -403.40817258 1915.46846755 -404.76817258 1915.12846755 C-404.76817258 1914.46846755 -404.76817258 1913.80846755 -404.76817258 1913.12846755 C-405.65569211 1912.73401443 -405.65569211 1912.73401443 -406.56114133 1912.33159255 C-408.86681636 1911.0746936 -410.28547107 1909.78078132 -412.08067258 1907.87846755 C-414.38300822 1905.49758741 -416.70777322 1903.29107039 -419.26817258 1901.19096755 C-422.60136659 1898.39829149 -425.38864647 1895.27898096 -428.19004758 1891.9604988 C-429.73077122 1890.10937892 -429.73077122 1890.10937892 -431.47129758 1888.5151863 C-432.76817258 1887.12846755 -432.76817258 1887.12846755 -432.76817258 1885.12846755 C-433.42817258 1885.12846755 -434.08817258 1885.12846755 -434.76817258 1885.12846755 C-435.09817258 1883.80846755 -435.42817258 1882.48846755 -435.76817258 1881.12846755 C-436.42817258 1881.12846755 -437.08817258 1881.12846755 -437.76817258 1881.12846755 C-439.21343994 1879.39298586 -440.57689478 1877.58870792 -441.89317258 1875.75346755 C-442.6176257 1874.75573318 -443.34207883 1873.7579988 -444.08848508 1872.73003005 C-445.76817258 1870.12846755 -445.76817258 1870.12846755 -445.76817258 1868.12846755 C-446.42817258 1868.12846755 -447.08817258 1868.12846755 -447.76817258 1868.12846755 C-450.76817258 1863.74385217 -450.76817258 1863.74385217 -450.76817258 1861.12846755 C-451.42817258 1861.12846755 -452.08817258 1861.12846755 -452.76817258 1861.12846755 C-454.80986742 1858.22297873 -455.76817258 1856.7270471 -455.76817258 1853.12846755 C-456.42817258 1853.12846755 -457.08817258 1853.12846755 -457.76817258 1853.12846755 C-458.60666062 1851.67309188 -459.43881192 1850.21406382 -460.26817258 1848.75346755 C-460.73223508 1847.94135818 -461.19629758 1847.1292488 -461.67442258 1846.29253005 C-462.76817258 1844.12846755 -462.76817258 1844.12846755 -462.76817258 1842.12846755 C-463.42817258 1842.12846755 -464.08817258 1842.12846755 -464.76817258 1842.12846755 C-467.76817258 1835.50346755 -467.76817258 1835.50346755 -467.76817258 1832.12846755 C-468.42817258 1832.12846755 -469.08817258 1832.12846755 -469.76817258 1832.12846755 C-472.76817258 1825.50346755 -472.76817258 1825.50346755 -472.76817258 1822.12846755 C-473.42817258 1822.12846755 -474.08817258 1822.12846755 -474.76817258 1822.12846755 C-475.01051633 1821.43881912 -475.25286008 1820.74917068 -475.50254758 1820.0386238 C-477.44539749 1814.59117155 -479.50494021 1809.30473416 -482.03379758 1804.1011238 C-482.76817258 1802.12846755 -482.76817258 1802.12846755 -482.76817258 1798.12846755 C-483.42817258 1798.12846755 -484.08817258 1798.12846755 -484.76817258 1798.12846755 C-484.90094601 1797.49038162 -485.03371945 1796.85229568 -485.17051633 1796.1948738 C-485.34711789 1795.36858474 -485.52371945 1794.54229568 -485.70567258 1793.69096755 C-485.96670773 1792.45540115 -485.96670773 1792.45540115 -486.23301633 1791.1948738 C-486.57570251 1789.15185552 -486.57570251 1789.15185552 -487.76817258 1788.12846755 C-487.8088109 1786.4622964 -487.81089358 1784.79458661 -487.76817258 1783.12846755 C-488.42817258 1783.12846755 -489.08817258 1783.12846755 -489.76817258 1783.12846755 C-489.90094601 1782.41819412 -490.03371945 1781.70792068 -490.17051633 1780.9761238 C-490.34711789 1780.05702224 -490.52371945 1779.13792068 -490.70567258 1778.19096755 C-490.96670773 1776.8161824 -490.96670773 1776.8161824 -491.23301633 1775.4136238 C-491.54532246 1773.17556911 -491.54532246 1773.17556911 -492.76817258 1772.12846755 C-492.8089804 1770.12888392 -492.81071614 1768.12801501 -492.76817258 1766.12846755 C-493.42817258 1766.12846755 -494.08817258 1766.12846755 -494.76817258 1766.12846755 C-494.87774289 1765.35503005 -494.9873132 1764.58159255 -495.10020383 1763.78471755 C-496.10230584 1756.8646436 -496.10230584 1756.8646436 -498.26817258 1750.25346755 C-500.31681196 1745.38018902 -500.7085498 1740.21815421 -501.33848508 1735.0073738 C-501.45992602 1732.23838814 -501.45992602 1732.23838814 -502.76817258 1731.12846755 C-502.83997221 1729.60918718 -502.85209265 1728.08679274 -502.83067258 1726.56596755 C-502.82164914 1725.73967849 -502.8126257 1724.91338943 -502.80332883 1724.0620613 C-502.79172726 1723.42397537 -502.7801257 1722.78588943 -502.76817258 1722.12846755 C-503.42817258 1722.12846755 -504.08817258 1722.12846755 -504.76817258 1722.12846755 C-504.8235217 1721.55813796 -504.87887082 1720.98780837 -504.93589718 1720.40019607 C-505.18791 1717.82998003 -505.44669985 1715.26049124 -505.70567258 1712.69096755 C-505.79268429 1711.79313552 -505.87969601 1710.89530349 -505.96934445 1709.97026443 C-506.05635617 1709.11626052 -506.14336789 1708.26225662 -506.23301633 1707.3823738 C-506.35084469 1706.19623489 -506.35084469 1706.19623489 -506.47105343 1704.98613357 C-506.58368756 1703.11743408 -506.58368756 1703.11743408 -507.76817258 1702.12846755 C-508.09168559 1699.2887422 -508.28121548 1696.44773019 -508.48692258 1693.59721755 C-508.50202522 1691.18710705 -508.50202522 1691.18710705 -509.76817258 1690.12846755 C-509.98435454 1688.30161736 -510.13948503 1686.46746394 -510.26817258 1684.6323738 C-510.35067258 1683.51669021 -510.43317258 1682.40100662 -510.51817258 1681.25151443 C-510.60067258 1680.07653396 -510.68317258 1678.90155349 -510.76817258 1677.69096755 C-510.93100599 1675.37949641 -511.09748833 1673.06827849 -511.26817258 1670.7573738 C-511.34036008 1669.7268489 -511.41254758 1668.696324 -511.48692258 1667.63457107 C-511.62176927 1665.1340476 -511.62176927 1665.1340476 -512.76817258 1663.12846755 C-513.03258069 1659.68748973 -513.2127717 1656.25298255 -513.37364133 1652.80620193 C-513.23456544 1649.16357302 -513.23456544 1649.16357302 -514.76817258 1646.12846755 C-514.98794402 1643.0642584 -515.14785831 1640.01737486 -515.26817258 1636.94878005 C-515.30877804 1636.02507614 -515.34938351 1635.10137222 -515.39121945 1634.14967727 C-515.52137354 1631.18444797 -515.64542731 1628.21901222 -515.76817258 1625.25346755 C-515.92989998 1621.36000658 -516.09738921 1617.46685298 -516.26817258 1613.57378005 C-516.30362179 1612.67370223 -516.33907101 1611.77362441 -516.37559445 1610.84627151 C-516.41233273 1610.00885421 -516.44907101 1609.17143691 -516.48692258 1608.30864334 C-516.51721554 1607.57219589 -516.54750851 1606.83574844 -516.57871945 1606.0769844 C-516.71599632 1603.91343538 -516.71599632 1603.91343538 -517.76817258 1601.12846755 C-517.90758731 1598.96556294 -517.99350463 1596.79904545 -518.04942258 1594.6323738 C-518.08680539 1593.35169021 -518.1241882 1592.07100662 -518.16270383 1590.75151443 C-518.19836967 1589.39801214 -518.23352069 1588.04449619 -518.26817258 1586.69096755 C-518.33605958 1584.04622943 -518.40980765 1581.40188393 -518.48692258 1578.7573738 C-518.51721554 1577.5824739 -518.54750851 1576.407574 -518.57871945 1575.19707107 C-518.66135002 1572.29091388 -518.66135002 1572.29091388 -519.2673067 1570.18453862 C-520.13899843 1566.6062151 -520.00916563 1562.91729332 -520.08011456 1559.25051915 C-520.10059366 1558.35809375 -520.12107277 1557.46566835 -520.14217245 1556.54619975 C-520.20782395 1553.59048174 -520.26582149 1550.63467993 -520.3227361 1547.6787815 C-520.34371118 1546.65343922 -520.36468626 1545.62809693 -520.38629695 1544.57168366 C-520.82095352 1523.167372 -520.91175083 1501.76831865 -520.89664013 1480.36029498 C-520.89404062 1475.04035238 -520.89738744 1469.72041234 -520.89988346 1464.40047013 C-520.903452 1455.12979726 -520.90341267 1445.85913023 -520.9008363 1436.5884571 C-520.89701541 1422.80129711 -520.89900723 1409.01414195 -520.90204461 1395.22698198 C-520.90697959 1372.00887716 -520.90720162 1348.79077501 -520.90446789 1325.57266998 C-520.90176262 1302.58422311 -520.9007176 1279.59577733 -520.90198834 1256.60733032 C-520.90206582 1255.15699529 -520.90214298 1253.70666025 -520.90221981 1252.25632522 C-520.90253034 1246.4263992 -520.90284901 1240.59647318 -520.90317957 1234.76654715 C-520.90409609 1218.47445422 -520.90466705 1202.18236128 -520.90496571 1185.89026832 C-520.90498618 1184.7778749 -520.90498618 1184.7778749 -520.90500706 1183.64300888 C-520.90541568 1160.05082859 -520.90429287 1136.45864862 -520.90211613 1112.86646842 C-520.90204588 1112.10250214 -520.90197563 1111.33853586 -520.90190326 1110.55141908 C-520.90075864 1098.14913271 -520.89953902 1085.74684635 -520.89831308 1073.34455999 C-520.89345814 1024.17649962 -520.89368256 975.00844198 -520.89854367 925.84038162 C-520.8997651 913.44637235 -520.90097626 901.05236308 -520.90211613 888.6583538 C-520.90218658 887.8949556 -520.90225703 887.13155741 -520.90232961 886.34502593 C-520.90448954 862.77676827 -520.90539937 839.20851082 -520.90496571 815.64025306 C-520.90495213 814.89919144 -520.90493854 814.15812981 -520.90492455 813.39461178 C-520.90461191 797.11866798 -520.90397796 780.84272421 -520.90305521 764.56678044 C-520.90272614 758.74178049 -520.90241305 752.91678053 -520.9021045 747.09178058 C-520.90202711 745.64299331 -520.90194838 744.19420603 -520.9018683 742.74541876 C-520.90060204 719.77339853 -520.90201306 696.8013795 -520.90471845 673.82935942 C-520.90749168 650.02084987 -520.90642997 626.21234362 -520.90118715 602.40383435 C-520.89827214 588.71860698 -520.89802802 575.0333861 -520.90183332 561.34815891 C-520.90410266 552.1663346 -520.90263246 542.98451542 -520.89832856 533.80269187 C-520.89598697 528.59862977 -520.8950561 523.39458043 -520.89873454 518.19051881 C-520.91303594 496.24706335 -520.74892192 474.31448105 -520.3227361 452.37478065 C-520.30331282 451.30582298 -520.28388954 450.23686531 -520.26387768 449.13551499 C-520.20809295 446.13753992 -520.14539324 443.13980025 -520.08011456 440.14201867 C-520.06380051 439.24044346 -520.04748646 438.33886825 -520.03067805 437.40997258 C-519.8832931 431.24358808 -519.8832931 431.24358808 -518.76817258 430.12846755 C-518.62075242 427.76670546 -518.53332798 425.43030234 -518.48692258 423.06596755 C-518.45930844 422.00623733 -518.45930844 422.00623733 -518.43113644 420.92509841 C-518.37221705 418.65964171 -518.31946831 416.39410897 -518.26817258 414.12846755 C-518.20071833 411.14913349 -518.12705067 408.17005192 -518.04942258 405.19096755 C-518.03584714 404.49930496 -518.0222717 403.80764236 -518.00828488 403.09502029 C-517.88097439 398.24126937 -517.88097439 398.24126937 -516.76817258 397.12846755 C-516.62237209 395.78479206 -516.54084738 394.43403216 -516.48692258 393.08354568 C-516.45018429 392.22595657 -516.41344601 391.36836746 -516.37559445 390.4847908 C-516.32242062 389.08637954 -516.32242062 389.08637954 -516.26817258 387.65971755 C-516.22756711 386.70907424 -516.18696164 385.75843093 -516.1451257 384.77898025 C-516.01496026 381.72897863 -515.89085595 378.67877877 -515.76817258 375.62846755 C-515.60686388 371.61780407 -515.43946501 367.60746563 -515.26817258 363.59721755 C-515.21499875 362.1988063 -515.21499875 362.1988063 -515.1607507 360.77214431 C-515.12401242 359.9145552 -515.08727414 359.05696609 -515.04942258 358.17338943 C-515.01912961 357.41473586 -514.98883664 356.6560823 -514.9576257 355.87443923 C-514.76817258 354.12846755 -514.76817258 354.12846755 -513.76817258 353.12846755 C-513.55733504 350.45785882 -513.39226061 347.80325405 -513.26817258 345.12846755 C-512.90330771 337.26360269 -512.90330771 337.26360269 -511.76817258 336.12846755 C-511.53964047 334.20538026 -511.372984 332.27486527 -511.23301633 330.3433113 C-511.14600461 329.17348709 -511.05899289 328.00366287 -510.96934445 326.79838943 C-510.88233273 325.56669021 -510.79532101 324.33499099 -510.70567258 323.06596755 C-510.61479367 321.83040115 -510.52391476 320.59483474 -510.43028195 319.32182693 C-510.2054966 316.25764762 -509.98498697 313.19321953 -509.76817258 310.12846755 C-509.10817258 310.12846755 -508.44817258 310.12846755 -507.76817258 310.12846755 C-507.77977414 309.34600662 -507.7913757 308.56354568 -507.80332883 307.7573738 C-507.81235226 306.74545974 -507.8213757 305.73354568 -507.83067258 304.69096755 C-507.84227414 303.68163162 -507.8538757 302.67229568 -507.86582883 301.6323738 C-507.76817258 299.12846755 -507.76817258 299.12846755 -506.76817258 298.12846755 C-506.54246074 296.71725853 -506.37428909 295.29670713 -506.23301633 293.8745613 C-506.10249875 292.59355544 -506.10249875 292.59355544 -505.96934445 291.28667068 C-505.88233273 290.38883865 -505.79532101 289.49100662 -505.70567258 288.56596755 C-505.61479367 287.66426834 -505.52391476 286.76256912 -505.43028195 285.83354568 C-505.20563334 283.59888322 -504.98511489 281.36388916 -504.76817258 279.12846755 C-504.10817258 279.12846755 -503.44817258 279.12846755 -502.76817258 279.12846755 C-502.77977414 278.49038162 -502.7913757 277.85229568 -502.80332883 277.1948738 C-502.81235226 276.36858474 -502.8213757 275.54229568 -502.83067258 274.69096755 C-502.84227414 273.86725662 -502.8538757 273.04354568 -502.86582883 272.1948738 C-502.76817258 270.12846755 -502.76817258 270.12846755 -501.76817258 269.12846755 C-501.39578539 266.80104766 -501.06980391 264.4661104 -500.76817258 262.12846755 C-499.87928369 255.23957867 -499.87928369 255.23957867 -498.76817258 254.12846755 C-498.40056526 251.80028792 -498.06575677 249.46662906 -497.76817258 247.12846755 C-497.10817258 247.12846755 -496.44817258 247.12846755 -495.76817258 247.12846755 C-495.73078976 246.34342849 -495.69340695 245.55838943 -495.65489133 244.7495613 C-495.26381391 238.49999085 -494.41891968 233.85408131 -491.76817258 228.12846755 C-490.96610086 224.8174764 -490.34237268 221.48584933 -489.76817258 218.12846755 C-489.10817258 218.12846755 -488.44817258 218.12846755 -487.76817258 218.12846755 C-487.80942258 217.40659255 -487.85067258 216.68471755 -487.89317258 215.94096755 C-487.75720955 212.88179957 -486.95812473 210.92835498 -485.76817258 208.12846755 C-485.3994617 206.4692686 -485.05535584 204.80370326 -484.76817258 203.12846755 C-484.10817258 203.12846755 -483.44817258 203.12846755 -482.76817258 203.12846755 C-482.58254758 202.13846755 -482.58254758 202.13846755 -482.39317258 201.12846755 C-481.62296719 197.43148173 -480.69866594 193.78840814 -479.76817258 190.12846755 C-479.10817258 190.12846755 -478.44817258 190.12846755 -477.76817258 190.12846755 C-477.64442258 189.42721755 -477.52067258 188.72596755 -477.39317258 188.00346755 C-476.72978912 184.95190368 -475.79605302 182.07505818 -474.76817258 179.12846755 C-474.10817258 179.12846755 -473.44817258 179.12846755 -472.76817258 179.12846755 C-472.76817258 177.80846755 -472.76817258 176.48846755 -472.76817258 175.12846755 C-472.10817258 175.12846755 -471.44817258 175.12846755 -470.76817258 175.12846755 C-470.27317258 172.15846755 -470.27317258 172.15846755 -469.76817258 169.12846755 C-469.10817258 169.12846755 -468.44817258 169.12846755 -467.76817258 169.12846755 C-467.76817258 167.80846755 -467.76817258 166.48846755 -467.76817258 165.12846755 C-467.10817258 165.12846755 -466.44817258 165.12846755 -465.76817258 165.12846755 C-465.66504758 164.59221755 -465.56192258 164.05596755 -465.45567258 163.50346755 C-464.58620883 160.49986552 -463.18798634 157.91130253 -461.76817258 155.12846755 C-461.08289213 153.46936752 -460.40925395 151.80514191 -459.76817258 150.12846755 C-459.10817258 150.12846755 -458.44817258 150.12846755 -457.76817258 150.12846755 C-457.50004758 149.40659255 -457.23192258 148.68471755 -456.95567258 147.94096755 C-455.76915896 145.13080372 -454.49331619 142.64430199 -452.76817258 140.12846755 C-452.10817258 140.12846755 -451.44817258 140.12846755 -450.76817258 140.12846755 C-450.51036008 139.41303787 -450.25254758 138.69760818 -449.98692258 137.9604988 C-448.69432492 134.95686644 -447.14040168 132.49341384 -445.26817258 129.81596755 C-444.65973508 128.93295974 -444.05129758 128.04995193 -443.42442258 127.1401863 C-442.87786008 126.47631912 -442.33129758 125.81245193 -441.76817258 125.12846755 C-441.10817258 125.12846755 -440.44817258 125.12846755 -439.76817258 125.12846755 C-439.76817258 124.13846755 -439.76817258 123.14846755 -439.76817258 122.12846755 C-439.10817258 122.12846755 -438.44817258 122.12846755 -437.76817258 122.12846755 C-437.76817258 121.46846755 -437.76817258 120.80846755 -437.76817258 120.12846755 C-437.10817258 120.12846755 -436.44817258 120.12846755 -435.76817258 120.12846755 C-435.27317258 118.14846755 -435.27317258 118.14846755 -434.76817258 116.12846755 C-434.10817258 116.12846755 -433.44817258 116.12846755 -432.76817258 116.12846755 C-432.50520383 115.53678787 -432.24223508 114.94510818 -431.97129758 114.3354988 C-430.71439862 112.02982377 -429.42048634 110.61116905 -427.51817258 108.81596755 C-425.13729243 106.51363191 -422.93077542 104.18886691 -420.83067258 101.62846755 C-418.03799651 98.29527354 -414.91868598 95.50799366 -411.60020383 92.70659255 C-409.74908394 91.16586891 -409.74908394 91.16586891 -408.15489133 89.42534255 C-406.76817258 88.12846755 -406.76817258 88.12846755 -404.76817258 88.12846755 C-404.76817258 87.46846755 -404.76817258 86.80846755 -404.76817258 86.12846755 C-403.44817258 85.79846755 -402.12817258 85.46846755 -400.76817258 85.12846755 C-400.76817258 84.46846755 -400.76817258 83.80846755 -400.76817258 83.12846755 C-399.03269088 81.68320019 -397.22841294 80.31974535 -395.39317258 79.00346755 C-394.3954382 78.27901443 -393.39770383 77.5545613 -392.36973508 76.80815505 C-389.76817258 75.12846755 -389.76817258 75.12846755 -387.76817258 75.12846755 C-387.76817258 74.46846755 -387.76817258 73.80846755 -387.76817258 73.12846755 C-383.38355719 70.12846755 -383.38355719 70.12846755 -380.76817258 70.12846755 C-380.76817258 69.46846755 -380.76817258 68.80846755 -380.76817258 68.12846755 C-377.86268375 66.08677271 -376.36675212 65.12846755 -372.76817258 65.12846755 C-372.76817258 64.46846755 -372.76817258 63.80846755 -372.76817258 63.12846755 C-371.3127969 62.28997951 -369.85376884 61.45782821 -368.39317258 60.62846755 C-367.5810632 60.16440505 -366.76895383 59.70034255 -365.93223508 59.22221755 C-363.76817258 58.12846755 -363.76817258 58.12846755 -361.76817258 58.12846755 C-361.76817258 57.46846755 -361.76817258 56.80846755 -361.76817258 56.12846755 C-355.14317258 53.12846755 -355.14317258 53.12846755 -351.76817258 53.12846755 C-351.76817258 52.46846755 -351.76817258 51.80846755 -351.76817258 51.12846755 C-345.14317258 48.12846755 -345.14317258 48.12846755 -341.76817258 48.12846755 C-341.76817258 47.46846755 -341.76817258 46.80846755 -341.76817258 46.12846755 C-341.07852414 45.8861238 -340.3888757 45.64378005 -339.67832883 45.39409255 C-334.23087657 43.45124264 -328.94443918 41.39169992 -323.74082883 38.86284255 C-321.76817258 38.12846755 -321.76817258 38.12846755 -317.76817258 38.12846755 C-317.76817258 37.46846755 -317.76817258 36.80846755 -317.76817258 36.12846755 C-316.81104367 35.9293074 -316.81104367 35.9293074 -315.83457883 35.7261238 C-315.00828976 35.54952224 -314.1820007 35.37292068 -313.33067258 35.19096755 C-312.50696164 35.01694412 -311.6832507 34.84292068 -310.83457883 34.6636238 C-308.79156054 34.32093762 -308.79156054 34.32093762 -307.76817258 33.12846755 C-306.10200142 33.08782923 -304.43429163 33.08574655 -302.76817258 33.12846755 C-302.76817258 32.46846755 -302.76817258 31.80846755 -302.76817258 31.12846755 C-301.70276242 30.9293074 -301.70276242 30.9293074 -300.61582883 30.7261238 C-299.23717648 30.46122146 -299.23717648 30.46122146 -297.83067258 30.19096755 C-296.91414914 30.01694412 -295.9976257 29.84292068 -295.05332883 29.6636238 C-292.81527413 29.35131767 -292.81527413 29.35131767 -291.76817258 28.12846755 C-289.76858894 28.08765972 -287.76772004 28.08592399 -285.76817258 28.12846755 C-285.76817258 27.46846755 -285.76817258 26.80846755 -285.76817258 26.12846755 C-284.99473508 26.01889724 -284.22129758 25.90932693 -283.42442258 25.7964363 C-276.50434863 24.79433429 -276.50434863 24.79433429 -269.89317258 22.62846755 C-265.01989404 20.57982817 -259.85785923 20.18809033 -254.64707883 19.55815505 C-251.87809316 19.43671411 -251.87809316 19.43671411 -250.76817258 18.12846755 C-249.2488922 18.05666791 -247.72649776 18.04454748 -246.20567258 18.06596755 C-245.37938351 18.07499099 -244.55309445 18.08401443 -243.70176633 18.0933113 C-242.74463742 18.11071365 -242.74463742 18.11071365 -241.76817258 18.12846755 C-241.76817258 17.46846755 -241.76817258 16.80846755 -241.76817258 16.12846755 C-241.19784299 16.07311843 -240.6275134 16.01776931 -240.03990109 15.96074294 C-237.46968505 15.70873013 -234.90019626 15.44994028 -232.33067258 15.19096755 C-230.98392453 15.06044998 -230.98392453 15.06044998 -229.60996945 14.92729568 C-228.75596554 14.84028396 -227.90196164 14.75327224 -227.02207883 14.6636238 C-226.23131955 14.58507156 -225.44056027 14.50651931 -224.62583859 14.42558669 C-222.7571391 14.31295257 -222.7571391 14.31295257 -221.76817258 13.12846755 C-218.92844722 12.80495454 -216.08743521 12.61542465 -213.23692258 12.40971755 C-210.82681207 12.39461491 -210.82681207 12.39461491 -209.76817258 11.12846755 C-207.94132238 10.91228559 -206.10716896 10.7571551 -204.27207883 10.62846755 C-202.59855343 10.50471755 -202.59855343 10.50471755 -200.89121945 10.37846755 C-199.71623898 10.29596755 -198.54125851 10.21346755 -197.33067258 10.12846755 C-195.01920143 9.96563414 -192.70798351 9.7991518 -190.39707883 9.62846755 C-189.36655392 9.55628005 -188.33602902 9.48409255 -187.27427609 9.40971755 C-184.77375262 9.27487086 -184.77375262 9.27487086 -182.76817258 8.12846755 C-179.32719475 7.86405944 -175.89268757 7.68386843 -172.44590695 7.5229988 C-168.80327804 7.66207469 -168.80327804 7.66207469 -165.76817258 6.12846755 C-162.70396342 5.90869611 -159.65707988 5.74878182 -156.58848508 5.62846755 C-155.66478116 5.58786209 -154.74107724 5.54725662 -153.78938229 5.50542068 C-150.82415299 5.37526659 -147.85871724 5.25121281 -144.89317258 5.12846755 C-140.9997116 4.96674015 -137.106558 4.79925092 -133.21348508 4.62846755 C-132.31340726 4.59301834 -131.41332944 4.55756912 -130.48597653 4.52104568 C-129.22985058 4.46593826 -129.22985058 4.46593826 -127.94834836 4.40971755 C-126.84367718 4.3642781 -126.84367718 4.3642781 -125.71668942 4.31792068 C-123.5531404 4.18064381 -123.5531404 4.18064381 -120.76817258 3.12846755 C-118.60526796 2.98905282 -116.43875047 2.9031355 -114.27207883 2.84721755 C-112.35105343 2.79114334 -112.35105343 2.79114334 -110.39121945 2.7339363 C-109.03771716 2.69827046 -107.68420121 2.66311944 -106.33067258 2.62846755 C-103.68593445 2.56058055 -101.04158896 2.48683248 -98.39707883 2.40971755 C-97.22217892 2.37942459 -96.04727902 2.34913162 -94.83677609 2.31792068 C-91.9306189 2.23529011 -91.9306189 2.23529011 -89.82424364 1.62933343 C-86.24592012 0.7576417 -82.55699834 0.8874745 -78.89022417 0.81652557 C-77.99779877 0.79604647 -77.10537337 0.77556736 -76.18590477 0.75446768 C-73.23018676 0.68881618 -70.27438495 0.63081864 -67.31848652 0.57390403 C-66.29314424 0.55292895 -65.26780195 0.53195387 -64.21138869 0.51034317 C-42.80707702 0.07568661 -21.40802367 -0.0151107 0 0 Z " fill="#4844FE" transform="translate(520.7681725751609,-0.12846755422651768)"/>
<path d="M0 0 C223.74 0 447.48 0 678 0 C678 0.66 678 1.32 678 2 C678.8971875 2.1546875 678.8971875 2.1546875 679.8125 2.3125 C683.01233777 3.3181633 684.38375083 4.9619283 686.07041269 7.80311014 C687.13658927 10.32280085 687.24940593 12.10754549 687.24839699 14.8377378 C687.25513887 16.30685673 687.25513887 16.30685673 687.26201695 17.80565482 C687.25676292 18.88128863 687.2515089 19.95692244 687.24609566 21.06515121 C687.24840335 22.21279558 687.25071103 23.36043994 687.25308865 24.5428614 C687.25748576 27.74293302 687.25286541 30.94284876 687.24453239 34.142908 C687.23767606 37.61873631 687.24240327 41.09455152 687.24568737 44.57038236 C687.24983993 50.66692801 687.24653864 56.76343468 687.23841095 62.85997581 C687.22635882 71.92535415 687.22573767 80.99070781 687.22749493 90.0560927 C687.2301251 105.30425591 687.22343091 120.55240182 687.21146011 135.80056 C687.19963436 150.90261673 687.1919299 166.00466627 687.18975449 181.1067276 C687.18961701 182.04500941 687.18947953 182.98329122 687.18933788 183.95000582 C687.18866124 188.71488038 687.18805846 193.47975495 687.18748413 198.24462953 C687.18328102 232.01221236 687.16979992 265.77978576 687.15087891 299.54736328 C687.13251625 332.35628205 687.11837979 365.16519823 687.10986328 397.97412109 C687.109322 400.03652267 687.10878059 402.09892424 687.10823905 404.16132581 C687.10386164 420.91865032 687.09977644 437.6759749 687.09576209 454.4332995 C687.07698026 531.95554192 687.03684128 609.47775977 687 687 C573.48 687 459.96 687 343 687 C342.625 520.75 342.625 520.75 342.52197266 468.17871094 C342.48208204 452.68166756 342.48208204 452.68166756 342.43954468 437.18463135 C342.42061047 430.26064149 342.40712975 423.33666692 342.39730835 416.41265869 C342.38597207 408.4337954 342.36780396 400.45498314 342.34107121 392.47615601 C342.32760425 388.39171407 342.3172881 384.30733092 342.31574559 380.22286558 C342.31429359 376.53304655 342.30376998 372.84337169 342.28585625 369.15359688 C342.27868059 367.18010484 342.2813624 365.20658466 342.284338 363.23308182 C342.27687176 362.06478081 342.26940552 360.8964798 342.26171303 359.69277573 C342.25943471 358.68271965 342.25715638 357.67266357 342.25480902 356.63199973 C341.9918612 353.91593183 341.27392399 352.37225157 340 350 C340 349.01 340 348.02 340 347 C336.23379589 345.26446572 333.28770908 344.74756122 329.1529417 344.73828697 C327.38705039 344.72708761 327.38705039 344.72708761 325.5854845 344.715662 C324.29694915 344.71759748 323.00841379 344.71953297 321.68083191 344.7215271 C320.29805169 344.71653084 318.91527439 344.71066196 317.53250122 344.70399475 C313.72583615 344.68817651 309.91924468 344.68478664 306.11255072 344.68335578 C301.94708716 344.679582 297.78166329 344.66425538 293.61622334 344.6503849 C285.52823124 344.62518568 277.44025232 344.61021383 269.3522303 344.59880099 C259.99801487 344.58516118 250.64386365 344.55882479 241.28967285 344.5324707 C216.58897392 344.46916287 191.88823314 344.42314313 167.1875 344.375 C112.015625 344.25125 56.84375 344.1275 0 344 C0 230.48 0 116.96 0 0 Z " fill="#FEFEFF" transform="translate(707,607)"/>
<path d="M0 0 C42.59189865 -0.06863137 85.18379093 -0.12151111 127.7757339 -0.15319599 C132.80141709 -0.15694821 137.82710017 -0.16083117 142.8527832 -0.16479492 C143.8533276 -0.16558185 144.853872 -0.16636878 145.88473592 -0.16717956 C162.09619009 -0.18024185 178.30761243 -0.20390022 194.5190477 -0.23145839 C211.14720233 -0.25948969 227.77534026 -0.27617144 244.40351754 -0.28226548 C254.66818104 -0.28638665 264.93275455 -0.29941401 275.19739036 -0.3237494 C282.23139468 -0.33957851 289.26535232 -0.34440678 296.29937317 -0.34050413 C300.36071376 -0.33857817 304.42189685 -0.34157922 308.48320961 -0.35761642 C312.19982119 -0.37218564 315.91616894 -0.37297191 319.63279251 -0.36269668 C321.61741099 -0.36082341 323.60202625 -0.37378889 325.58660001 -0.38724393 C327.35193915 -0.37828421 327.35193915 -0.37828421 329.1529417 -0.36914349 C330.16869359 -0.37028265 331.18444547 -0.37142181 332.23097771 -0.37259549 C335.50009964 0.06729266 337.35618373 1.05255857 340 3 C344.00891907 9.37136278 343.41099347 16.15487549 343.36076355 23.48374939 C343.36207701 24.86002786 343.36470994 26.23630559 343.36854553 27.61257935 C343.37526227 31.39201473 343.36325106 35.1711943 343.34821819 38.95059721 C343.33510655 43.08969375 343.33950279 47.22877873 343.34167194 51.36789036 C343.34326618 59.4005383 343.32942146 67.43308553 343.31016796 75.4657076 C343.28856195 84.75811349 343.28618338 94.05045896 343.28381348 103.34289551 C343.26806457 127.87444629 343.2261812 152.40597466 343.1875 176.9375 C343.125625 231.738125 343.06375 286.53875 343 343 C232.45 343 121.9 343 8 343 C8 342.34 8 341.68 8 341 C7.4225 340.95875 6.845 340.9175 6.25 340.875 C3.5842625 339.83832431 2.35984785 338.52857646 0.84357119 336.12503886 C-1.09223595 331.24855013 -0.52794315 325.76211005 -0.48101807 320.59854126 C-0.48276309 319.2156764 -0.48626674 317.83281283 -0.49137473 316.4499563 C-0.50031222 312.65521683 -0.48432831 308.86092957 -0.46426249 305.0662477 C-0.44698404 300.97224565 -0.45283446 296.87826898 -0.45587158 292.78424072 C-0.4579687 285.6928262 -0.44542175 278.60155892 -0.42292023 271.51018143 C-0.39040808 261.25727299 -0.37999401 251.00443574 -0.37496826 240.75148134 C-0.36621438 224.11666986 -0.33959625 207.48193685 -0.30175781 190.84716797 C-0.26504015 174.6883178 -0.23672718 158.52948894 -0.21972656 142.37060547 C-0.21867567 141.37452529 -0.21762477 140.3784451 -0.21654204 139.35218067 C-0.21132187 134.35512482 -0.20626705 129.35806881 -0.20129442 124.3610127 C-0.15982948 82.90728721 -0.08937849 41.4536481 0 0 Z " fill="#9492FF" transform="translate(707,951)"/>
<path d="M0 0 C0.33 0 0.66 0 1 0 C1 113.52 1 227.04 1 344 C-53.553125 344.103125 -108.10625 344.20625 -164.3125 344.3125 C-181.56571533 344.35802002 -198.81893066 344.40354004 -216.5949707 344.45043945 C-237.59216309 344.47302246 -237.59216309 344.47302246 -247.40812683 344.47721863 C-254.29391445 344.48189476 -261.17950088 344.50029186 -268.06523132 344.52787781 C-275.99874806 344.55961469 -283.9320708 344.57420096 -291.86565156 344.56722475 C-295.92759874 344.56420122 -299.98911187 344.56912788 -304.05098021 344.59607565 C-307.71936129 344.62026604 -311.38699825 344.62171157 -315.05541229 344.60450554 C-317.01977027 344.60135818 -318.98411873 344.62303466 -320.94835186 344.64540386 C-322.107693 344.6354495 -323.26703415 344.62549515 -324.46150684 344.61523914 C-325.96804725 344.61808705 -325.96804725 344.61808705 -327.50502282 344.62099248 C-330 344 -330 344 -331.84615582 341.83654755 C-333.21439698 338.47293815 -333.60027663 336.5961494 -333 333 C-331.34066741 330.75562432 -329.81440027 329.0138802 -327.83623695 327.09236336 C-327.27798446 326.5265886 -326.71973196 325.96081385 -326.14456272 325.3778944 C-324.25952182 323.47488524 -322.35373104 321.5941155 -320.44741821 319.71243286 C-319.08225363 318.34322168 -317.71840529 316.97269708 -316.35576761 315.6009711 C-312.59913895 311.82699735 -308.82397078 308.0720541 -305.04558849 304.31987667 C-300.97744648 300.27347989 -296.9265839 296.20985036 -292.87358093 292.14830017 C-284.92828965 284.19172591 -276.96711517 276.25122725 -269.00060727 268.31590243 C-259.73258824 259.08290015 -250.48064622 249.83385856 -241.22946458 240.58399092 C-224.7288974 224.08680201 -208.21425633 207.603775 -191.69140625 191.12890625 C-175.64108456 175.12518432 -159.59992272 159.11235764 -143.56933594 143.08886719 C-143.07536956 142.59512384 -142.58140318 142.10138049 -142.07246812 141.59267522 C-140.08103871 139.60214351 -138.08961618 137.61160492 -136.09819401 135.62106596 C-135.10583928 134.62915199 -134.11348363 133.63723893 -133.12112707 132.64532678 C-132.13124755 131.65588997 -131.14137061 130.66645058 -130.15149627 129.67700859 C-114.40353914 113.9360754 -98.64762706 98.20310838 -82.89036519 82.47149018 C-77.34933495 76.93934324 -71.80931117 71.40619069 -66.26997663 65.87234588 C-57.48607634 57.09729445 -48.69887207 48.32558036 -39.90480186 39.56071992 C-35.8839503 35.5531196 -31.86468887 31.54395873 -27.84967232 27.53051186 C-24.18016867 23.86257396 -20.50611872 20.19925729 -16.8282396 16.53971814 C-15.49269067 15.20921473 -14.1588474 13.87699675 -12.82681341 12.54297437 C-11.02756069 10.74155335 -9.22237734 8.94630286 -7.41544533 7.1525898 C-6.88966101 6.62326654 -6.3638767 6.09394329 -5.82215953 5.54857993 C-2.228319 2 -2.228319 2 0 2 C0 1.34 0 0.68 0 0 Z " fill="#9492FF" transform="translate(706,607)"/>
<path d="M0 0 C113.19 0 226.38 0 343 0 C342.34 0.33 341.68 0.66 341 1 C340.60904302 1.84731948 340.60904302 1.84731948 340.21018791 2.71175653 C338.5451571 5.86002453 336.14250046 8.13030822 333.63699341 10.61189556 C333.08149834 11.16999791 332.52600328 11.72810026 331.95367503 12.3031148 C330.08077574 14.18233802 328.20079639 16.05431533 326.32080078 17.92643738 C324.96713955 19.28168607 323.61391627 20.63737232 322.26109505 21.99345952 C318.53425822 25.72672635 314.80118471 29.45370245 311.06708622 33.17970407 C307.04436218 37.19586365 303.02739004 41.21776897 299.00970459 45.2389679 C291.13535728 53.11836309 283.25566912 60.99239649 275.37417746 68.86464473 C266.20406773 78.02438488 257.03917276 87.18933522 247.87449002 96.35450474 C231.03366232 113.1958485 214.18756017 130.03190588 197.33898953 146.8655028 C181.94828811 162.24257655 166.56128767 177.6233435 151.17773438 193.00756836 C150.18977653 193.99556662 149.20181865 194.98356485 148.21386075 195.97156306 C147.72543993 196.46000423 147.23701911 196.9484454 146.73379766 197.45168782 C144.27530609 199.91028018 141.81680942 202.36886744 139.35830688 204.82744884 C138.87331374 205.3124587 138.3883206 205.79746855 137.8886307 206.29717567 C122.28932992 221.89691962 106.68624975 237.49288256 91.0828582 253.08853468 C84.6860141 259.4823572 78.29015182 265.87716089 71.89459229 272.2722683 C64.10653675 280.05964306 56.31660186 287.84513228 48.52428484 295.62824293 C44.54515126 299.60274642 40.56682221 303.57804652 36.59062958 307.5554924 C32.95605651 311.19115553 29.31920583 314.82452346 25.68046165 318.45601181 C24.3592994 319.77535155 23.03899137 321.09554729 21.71959138 322.41664936 C19.93634363 324.20194397 18.15009506 325.98417911 16.36300659 327.76562786 C15.84260701 328.28808276 15.32220743 328.81053766 14.78603816 329.34882453 C10.13037188 333.97739256 10.13037188 333.97739256 5.875 334.0625 C4.92625 334.041875 3.9775 334.02125 3 334 C3 333.34 3 332.68 3 332 C2.01 331.67 1.02 331.34 0 331 C0 221.77 0 112.54 0 0 Z " fill="#9492FF" transform="translate(1050,1294)"/>
<path d="M0 0 C113.19 0 226.38 0 343 0 C342.34 0.33 341.68 0.66 341 1 C339.86649466 3.01669827 339.86649466 3.01669827 339 5 C338.67 4.01 338.34 3.02 338 2 C226.79 2 115.58 2 1 2 C1.33 110.24 1.66 218.48 2 330 C2.66 330.33 3.32 330.66 4 331 C4 331.66 4 332.32 4 333 C5.65 333 7.3 333 9 333 C9 333.33 9 333.66 9 334 C7.02 334 5.04 334 3 334 C3 333.34 3 332.68 3 332 C2.01 331.67 1.02 331.34 0 331 C0 221.77 0 112.54 0 0 Z " fill="#8785FF" transform="translate(1050,1294)"/>
</svg>
