<svg xmlns="http://www.w3.org/2000/svg" width="600" height="600" viewBox="0 0 600 600" version="1.1"><path d="M 436 274.486 C 405.219 281.447, 385.735 298.271, 376.749 325.648 C 374.771 331.674, 374.507 334.488, 374.560 349 C 374.616 364.165, 374.832 366.091, 377.230 372.806 C 387.028 400.244, 403.381 414.201, 449.500 434.486 C 467.435 442.374, 481.290 449.700, 486.166 453.874 C 493.725 460.344, 496.763 471.112, 493.919 481.355 C 491.649 489.529, 481.592 497.088, 469.099 500.009 C 462.586 501.532, 445.630 500.780, 439 498.675 C 426.918 494.838, 417.129 487.371, 407.887 474.942 C 405.048 471.124, 402.392 468, 401.986 468 C 401.016 468, 359.878 491.912, 358.238 493.429 C 355.537 495.926, 369.800 515.480, 381.196 524.904 C 394.417 535.836, 412.895 544.507, 431.666 548.587 C 437.435 549.841, 444.509 550.304, 458.500 550.344 C 475.819 550.393, 478.397 550.167, 487.639 547.790 C 527.192 537.618, 548.088 514.336, 550.601 477.638 C 551.972 457.610, 545.503 436.368, 533.778 422.405 C 522.035 408.420, 507.734 399.603, 467.336 381.441 C 448.255 372.863, 441.028 368.709, 435.799 363.317 C 431.059 358.429, 428.999 353.414, 429.006 346.782 C 429.017 336.122, 433.080 329.134, 441.721 324.913 C 445.687 322.976, 448.116 322.574, 456 322.550 C 464.167 322.525, 466.272 322.883, 471 325.105 C 476.774 327.817, 483.613 333.979, 487.727 340.175 C 489.068 342.196, 490.692 344.052, 491.334 344.298 C 492.525 344.755, 511.070 333.158, 525.848 322.716 C 535.201 316.106, 535.121 316.974, 527.313 306.782 C 521.459 299.141, 512.244 290.352, 505.297 285.783 C 499.464 281.948, 485.966 276.573, 478 274.914 C 469.521 273.148, 443.107 272.878, 436 274.486 M 144.381 276.746 L 132.261 277.059 131.533 300.466 C 131.132 313.340, 131.099 324.352, 131.461 324.937 C 131.907 325.658, 144.485 326, 170.555 326 L 208.991 326 209.246 436.750 L 209.500 547.500 237 547.500 L 264.500 547.500 264.754 436.762 L 265.009 326.023 303.754 325.762 L 342.500 325.500 342.500 301.500 L 342.500 277.500 338 276.824 C 333.662 276.173, 169.114 276.106, 144.381 276.746" stroke="none" fill="#fbfbfb" fill-rule="evenodd"/><path d="M 0 300.002 L 0 600.003 300.250 599.752 L 600.500 599.500 600.752 299.750 L 601.003 0 300.502 0 L 0 0 0 300.002 M 0.493 300.500 C 0.493 465.500, 0.609 532.851, 0.750 450.169 C 0.891 367.487, 0.891 232.487, 0.750 150.169 C 0.609 67.851, 0.493 135.500, 0.493 300.500 M 436 274.486 C 405.219 281.447, 385.735 298.271, 376.749 325.648 C 374.771 331.674, 374.507 334.488, 374.560 349 C 374.616 364.165, 374.832 366.091, 377.230 372.806 C 387.028 400.244, 403.381 414.201, 449.500 434.486 C 467.435 442.374, 481.290 449.700, 486.166 453.874 C 493.725 460.344, 496.763 471.112, 493.919 481.355 C 491.649 489.529, 481.592 497.088, 469.099 500.009 C 462.586 501.532, 445.630 500.780, 439 498.675 C 426.918 494.838, 417.129 487.371, 407.887 474.942 C 405.048 471.124, 402.392 468, 401.986 468 C 401.016 468, 359.878 491.912, 358.238 493.429 C 355.537 495.926, 369.800 515.480, 381.196 524.904 C 394.417 535.836, 412.895 544.507, 431.666 548.587 C 437.435 549.841, 444.509 550.304, 458.500 550.344 C 475.819 550.393, 478.397 550.167, 487.639 547.790 C 527.192 537.618, 548.088 514.336, 550.601 477.638 C 551.972 457.610, 545.503 436.368, 533.778 422.405 C 522.035 408.420, 507.734 399.603, 467.336 381.441 C 448.255 372.863, 441.028 368.709, 435.799 363.317 C 431.059 358.429, 428.999 353.414, 429.006 346.782 C 429.017 336.122, 433.080 329.134, 441.721 324.913 C 445.687 322.976, 448.116 322.574, 456 322.550 C 464.167 322.525, 466.272 322.883, 471 325.105 C 476.774 327.817, 483.613 333.979, 487.727 340.175 C 489.068 342.196, 490.692 344.052, 491.334 344.298 C 492.525 344.755, 511.070 333.158, 525.848 322.716 C 535.201 316.106, 535.121 316.974, 527.313 306.782 C 521.459 299.141, 512.244 290.352, 505.297 285.783 C 499.464 281.948, 485.966 276.573, 478 274.914 C 469.521 273.148, 443.107 272.878, 436 274.486 M 144.381 276.746 L 132.261 277.059 131.533 300.466 C 131.132 313.340, 131.099 324.352, 131.461 324.937 C 131.907 325.658, 144.485 326, 170.555 326 L 208.991 326 209.246 436.750 L 209.500 547.500 237 547.500 L 264.500 547.500 264.754 436.762 L 265.009 326.023 303.754 325.762 L 342.500 325.500 342.500 301.500 L 342.500 277.500 338 276.824 C 333.662 276.173, 169.114 276.106, 144.381 276.746" stroke="none" fill="#047ccc" fill-rule="evenodd"/></svg>